G04 #@! TF.GenerationSoftware,KiCad,Pcbnew,(5.99.0-9812-gfee3c41c40)*
G04 #@! TF.CreationDate,2021-03-20T22:33:38-07:00*
G04 #@! TF.ProjectId,homebreakout,686f6d65-6272-4656-916b-6f75742e6b69,rev?*
G04 #@! TF.SameCoordinates,Original*
G04 #@! TF.FileFunction,Copper,L1,Top*
G04 #@! TF.FilePolarity,Positive*
%FSLAX46Y46*%
G04 Gerber Fmt 4.6, Leading zero omitted, Abs format (unit mm)*
G04 Created by KiCad (PCBNEW (5.99.0-9812-gfee3c41c40)) date 2021-03-20 22:33:38*
%MOMM*%
%LPD*%
G01*
G04 APERTURE LIST*
G04 #@! TA.AperFunction,SMDPad,CuDef*
%ADD10C,0.500000*%
G04 #@! TD*
G04 #@! TA.AperFunction,ComponentPad*
%ADD11R,1.700000X1.700000*%
G04 #@! TD*
G04 #@! TA.AperFunction,ComponentPad*
%ADD12O,1.700000X1.700000*%
G04 #@! TD*
G04 #@! TA.AperFunction,SMDPad,CuDef*
%ADD13R,1.500000X1.000000*%
G04 #@! TD*
G04 #@! TA.AperFunction,ComponentPad*
%ADD14C,1.397000*%
G04 #@! TD*
G04 #@! TA.AperFunction,ComponentPad*
%ADD15R,1.600000X1.600000*%
G04 #@! TD*
G04 #@! TA.AperFunction,ComponentPad*
%ADD16C,1.600000*%
G04 #@! TD*
G04 #@! TA.AperFunction,ComponentPad*
%ADD17C,4.000000*%
G04 #@! TD*
G04 #@! TA.AperFunction,Conductor*
%ADD18C,0.254000*%
G04 #@! TD*
G04 #@! TA.AperFunction,Conductor*
%ADD19C,0.203200*%
G04 #@! TD*
G04 #@! TA.AperFunction,Conductor*
%ADD20C,0.177800*%
G04 #@! TD*
G04 APERTURE END LIST*
G36*
X158288000Y-101970001D02*
G01*
X157688000Y-101970001D01*
X157688000Y-101470001D01*
X158288000Y-101470001D01*
X158288000Y-101970001D01*
G37*
D10*
X171958000Y-94869000D03*
X157353000Y-121031000D03*
X171958000Y-120904000D03*
X155448000Y-94996000D03*
D11*
X161163000Y-101600000D03*
D12*
X163703000Y-101600000D03*
X166243000Y-101600000D03*
X168783000Y-101600000D03*
X171323000Y-101600000D03*
D13*
X157988000Y-102370001D03*
X157988000Y-101070001D03*
D14*
X160274000Y-97663000D03*
X161274001Y-95662999D03*
X162274001Y-97663000D03*
X163274002Y-95662999D03*
X164274000Y-97663000D03*
X165274000Y-95662999D03*
X166274001Y-97663000D03*
X167274001Y-95662999D03*
D15*
X165862000Y-106426000D03*
D16*
X163362000Y-106426000D03*
X163362000Y-108426000D03*
X165862000Y-108426000D03*
D17*
X158612000Y-111286000D03*
X170612000Y-111286000D03*
D18*
X163703000Y-104267000D02*
X165862000Y-106426000D01*
X166497000Y-106426000D02*
X171323000Y-101600000D01*
X165862000Y-106426000D02*
X166497000Y-106426000D01*
X163703000Y-104267000D02*
X159884999Y-104267000D01*
X159884999Y-104267000D02*
X157988000Y-102370001D01*
D19*
X164274000Y-98489000D02*
X161163000Y-101600000D01*
X160633001Y-101070001D02*
X161163000Y-101600000D01*
X164274000Y-97663000D02*
X164274000Y-98489000D01*
X157988000Y-101070001D02*
X160633001Y-101070001D01*
D20*
X159075387Y-106467198D02*
X159008208Y-106467198D01*
X158969897Y-105392457D02*
X158917374Y-105350571D01*
X160956489Y-96774000D02*
X161385001Y-96774000D01*
X158856848Y-105321424D02*
X158791354Y-105306475D01*
X161385001Y-96774000D02*
X162274001Y-97663000D01*
X160455691Y-107767060D02*
X160484838Y-107706534D01*
X160242690Y-107089515D02*
X160102458Y-107229746D01*
X158658681Y-105321424D02*
X158598155Y-105350571D01*
X159923916Y-107315727D02*
X159856737Y-107315727D01*
X159055878Y-105571000D02*
X159040930Y-105505505D01*
X160440742Y-107899733D02*
X160440742Y-107832554D01*
X160614432Y-107047629D02*
X160553906Y-107018482D01*
X160295213Y-107047629D02*
X160242690Y-107089515D01*
X160049936Y-107271631D02*
X159989410Y-107300779D01*
X160752936Y-107268058D02*
X160737988Y-107202563D01*
X160708840Y-107461257D02*
X160737988Y-107400731D01*
X160488412Y-107003533D02*
X160421233Y-107003533D01*
X158758633Y-106070002D02*
X158787780Y-106009476D01*
X159253929Y-106381217D02*
X159201407Y-106423102D01*
X159055878Y-105638179D02*
X159055878Y-105571000D01*
X159889459Y-106354034D02*
X159860311Y-106293509D01*
X159818426Y-106665250D02*
X159860311Y-106612728D01*
X159860311Y-106293509D02*
X159818426Y-106240986D01*
X160102458Y-107229746D02*
X160049936Y-107271631D01*
X160523289Y-96340800D02*
X160956489Y-96774000D01*
X160666955Y-107513779D02*
X160708840Y-107461257D01*
X156514800Y-98752648D02*
X158926648Y-96340800D01*
X158969897Y-105816721D02*
X159011782Y-105764199D01*
X158405400Y-105532688D02*
X158352878Y-105574573D01*
X159011782Y-105444980D02*
X158969897Y-105392457D01*
X159765903Y-106199100D02*
X159705377Y-106169953D01*
X159040930Y-105703673D02*
X159055878Y-105638179D01*
X159446684Y-106199100D02*
X159394161Y-106240986D01*
X158292352Y-105603721D02*
X158226858Y-105618669D01*
X159592213Y-107051204D02*
X159592213Y-106984025D01*
X160484838Y-107706534D02*
X160526724Y-107654011D01*
X159040930Y-105505505D02*
X159011782Y-105444980D01*
X159904407Y-106419529D02*
X159889459Y-106354034D01*
X163362000Y-108426000D02*
X163362000Y-109257448D01*
X158882188Y-106423102D02*
X158829666Y-106381218D01*
X158787780Y-106328695D02*
X158758633Y-106268169D01*
X158743684Y-106202675D02*
X158743684Y-106135496D01*
X159607162Y-107116698D02*
X159592213Y-107051204D01*
X161998648Y-109550200D02*
X160526724Y-108078276D01*
X160752936Y-107335237D02*
X160752936Y-107268058D01*
X158758633Y-106268169D02*
X158743684Y-106202675D01*
X163362000Y-109257448D02*
X163069248Y-109550200D01*
X158094184Y-105603721D02*
X158033659Y-105574573D01*
X159639883Y-106155004D02*
X159572704Y-106155004D01*
X159572704Y-106155004D02*
X159507210Y-106169953D01*
X159678195Y-106805482D02*
X159818426Y-106665250D01*
X160553906Y-107018482D02*
X160488412Y-107003533D01*
X159889459Y-106552202D02*
X159904407Y-106486708D01*
X158829666Y-106381218D02*
X158787780Y-106328695D01*
X160455691Y-107965227D02*
X160440742Y-107899733D01*
X158926648Y-96340800D02*
X160523289Y-96340800D01*
X159394161Y-106240986D02*
X159253929Y-106381217D01*
X159507210Y-106169953D02*
X159446684Y-106199100D01*
X160440742Y-107832554D02*
X160455691Y-107767060D01*
X159678195Y-107229747D02*
X159636309Y-107177224D01*
X159607162Y-106918531D02*
X159636309Y-106858005D01*
X159636309Y-107177224D02*
X159607162Y-107116698D01*
X158917374Y-105350571D02*
X158856848Y-105321424D01*
X158033659Y-105574573D02*
X157981137Y-105532689D01*
X159818426Y-106240986D02*
X159765903Y-106199100D01*
X159140881Y-106452250D02*
X159075387Y-106467198D01*
X159592213Y-106984025D02*
X159607162Y-106918531D01*
X158942713Y-106452250D02*
X158882188Y-106423102D01*
X159989410Y-107300779D02*
X159923916Y-107315727D01*
X160526724Y-108078276D02*
X160484838Y-108025753D01*
X159705377Y-106169953D02*
X159639883Y-106155004D01*
X158829666Y-105956953D02*
X158969897Y-105816721D01*
X163069248Y-109550200D02*
X161998648Y-109550200D01*
X159856737Y-107315727D02*
X159791242Y-107300779D01*
X159860311Y-106612728D02*
X159889459Y-106552202D01*
X159011782Y-105764199D02*
X159040930Y-105703673D01*
X160526724Y-107654011D02*
X160666955Y-107513779D01*
X160666955Y-107089515D02*
X160614432Y-107047629D01*
X158226858Y-105618669D02*
X158159679Y-105618669D01*
X160421233Y-107003533D02*
X160355739Y-107018482D01*
X156514800Y-104066352D02*
X156514800Y-98752648D01*
X159008208Y-106467198D02*
X158942713Y-106452250D01*
X158352878Y-105574573D02*
X158292352Y-105603721D01*
X159730717Y-107271631D02*
X159678195Y-107229747D01*
X158159679Y-105618669D02*
X158094184Y-105603721D01*
X158787780Y-106009476D02*
X158829666Y-105956953D01*
X158743684Y-106135496D02*
X158758633Y-106070002D01*
X158791354Y-105306475D02*
X158724175Y-105306475D01*
X159791242Y-107300779D02*
X159730717Y-107271631D01*
X158598155Y-105350571D02*
X158545632Y-105392457D01*
X157981137Y-105532689D02*
X156514800Y-104066352D01*
X160708840Y-107142038D02*
X160666955Y-107089515D01*
X160355739Y-107018482D02*
X160295213Y-107047629D01*
X160737988Y-107400731D02*
X160752936Y-107335237D01*
X159636309Y-106858005D02*
X159678195Y-106805482D01*
X159904407Y-106486708D02*
X159904407Y-106419529D01*
X159201407Y-106423102D02*
X159140881Y-106452250D01*
X160737988Y-107202563D02*
X160708840Y-107142038D01*
X158724175Y-105306475D02*
X158658681Y-105321424D01*
X160484838Y-108025753D02*
X160455691Y-107965227D01*
X158545632Y-105392457D02*
X158405400Y-105532688D01*
X156159200Y-98605352D02*
X158779352Y-95985200D01*
X160951801Y-95985200D02*
X161274001Y-95663000D01*
X158779352Y-95985200D02*
X160951801Y-95985200D01*
X164465000Y-108901733D02*
X163460933Y-109905800D01*
X156159200Y-104213648D02*
X156159200Y-98605352D01*
X161851352Y-109905800D02*
X156159200Y-104213648D01*
X164465000Y-107529000D02*
X164465000Y-108901733D01*
X163460933Y-109905800D02*
X161851352Y-109905800D01*
X163362000Y-106426000D02*
X164465000Y-107529000D01*
X161274001Y-95663000D02*
X161274001Y-95662999D01*
D19*
X167386000Y-100457000D02*
X166243000Y-101600000D01*
X165274000Y-95662999D02*
X165683702Y-95662999D01*
X167386000Y-97365297D02*
X167386000Y-100457000D01*
X165683702Y-95662999D02*
X167386000Y-97365297D01*
X166274001Y-99028999D02*
X163703000Y-101600000D01*
X166274001Y-97663000D02*
X166274001Y-99028999D01*
M02*
