G04 #@! TF.GenerationSoftware,KiCad,Pcbnew,(5.99.0-9812-gfee3c41c40)*
G04 #@! TF.CreationDate,2021-03-20T22:32:52-07:00*
G04 #@! TF.ProjectId,homebreakout,686f6d65-6272-4656-916b-6f75742e6b69,rev?*
G04 #@! TF.SameCoordinates,Original*
G04 #@! TF.FileFunction,Soldermask,Top*
G04 #@! TF.FilePolarity,Negative*
%FSLAX46Y46*%
G04 Gerber Fmt 4.6, Leading zero omitted, Abs format (unit mm)*
G04 Created by KiCad (PCBNEW (5.99.0-9812-gfee3c41c40)) date 2021-03-20 22:32:52*
%MOMM*%
%LPD*%
G01*
G04 APERTURE LIST*
G04 Aperture macros list*
%AMRoundRect*
0 Rectangle with rounded corners*
0 $1 Rounding radius*
0 $2 $3 $4 $5 $6 $7 $8 $9 X,Y pos of 4 corners*
0 Add a 4 corners polygon primitive as box body*
4,1,4,$2,$3,$4,$5,$6,$7,$8,$9,$2,$3,0*
0 Add four circle primitives for the rounded corners*
1,1,$1+$1,$2,$3*
1,1,$1+$1,$4,$5*
1,1,$1+$1,$6,$7*
1,1,$1+$1,$8,$9*
0 Add four rect primitives between the rounded corners*
20,1,$1+$1,$2,$3,$4,$5,0*
20,1,$1+$1,$4,$5,$6,$7,0*
20,1,$1+$1,$6,$7,$8,$9,0*
20,1,$1+$1,$8,$9,$2,$3,0*%
G04 Aperture macros list end*
%ADD10R,0.400000X1.950000*%
%ADD11C,0.500000*%
%ADD12R,1.600000X1.400000*%
%ADD13R,1.900000X1.900000*%
%ADD14O,0.900000X1.800000*%
%ADD15R,0.400000X1.500000*%
%ADD16R,1.000000X1.000000*%
%ADD17RoundRect,0.225000X-0.250000X0.225000X-0.250000X-0.225000X0.250000X-0.225000X0.250000X0.225000X0*%
%ADD18C,2.200000*%
%ADD19C,1.000000*%
%ADD20RoundRect,0.200000X-0.275000X0.200000X-0.275000X-0.200000X0.275000X-0.200000X0.275000X0.200000X0*%
%ADD21RoundRect,0.225000X0.250000X-0.225000X0.250000X0.225000X-0.250000X0.225000X-0.250000X-0.225000X0*%
%ADD22RoundRect,0.225000X0.225000X0.250000X-0.225000X0.250000X-0.225000X-0.250000X0.225000X-0.250000X0*%
%ADD23RoundRect,0.225000X-0.225000X-0.250000X0.225000X-0.250000X0.225000X0.250000X-0.225000X0.250000X0*%
%ADD24RoundRect,0.200000X-0.200000X-0.275000X0.200000X-0.275000X0.200000X0.275000X-0.200000X0.275000X0*%
%ADD25R,0.650000X1.560000*%
%ADD26R,1.200000X0.400000*%
%ADD27C,1.397000*%
%ADD28R,1.700000X1.700000*%
%ADD29O,1.700000X1.700000*%
G04 APERTURE END LIST*
D10*
X168880000Y-118487800D03*
X169530000Y-118487800D03*
X170180000Y-118487800D03*
X170830000Y-118487800D03*
X171480000Y-118487800D03*
D11*
X166880000Y-121462800D03*
X173480000Y-121462800D03*
D12*
X166980000Y-119012800D03*
X173380000Y-119012800D03*
D13*
X171380000Y-121462800D03*
X168980000Y-121462800D03*
D14*
X166880000Y-121462800D03*
X173480000Y-121462800D03*
D15*
X173990000Y-103117000D03*
X174640000Y-103117000D03*
X175290000Y-103117000D03*
X175290000Y-100457000D03*
X174640000Y-100457000D03*
X173990000Y-100457000D03*
D16*
X164338000Y-112034000D03*
X164338000Y-114534000D03*
D17*
X173736000Y-110477000D03*
X173736000Y-112027000D03*
D18*
X152019000Y-96647000D03*
D19*
X171958000Y-94869000D03*
D10*
X155024000Y-118487800D03*
X155674000Y-118487800D03*
X156324000Y-118487800D03*
X156974000Y-118487800D03*
X157624000Y-118487800D03*
D11*
X153024000Y-121462800D03*
X159624000Y-121462800D03*
D12*
X153124000Y-119012800D03*
X159524000Y-119012800D03*
D13*
X157524000Y-121462800D03*
X155124000Y-121462800D03*
D14*
X153024000Y-121462800D03*
X159624000Y-121462800D03*
D20*
X169926000Y-112840000D03*
X169926000Y-114490000D03*
D21*
X160020000Y-110376000D03*
X160020000Y-108826000D03*
D22*
X164097000Y-110363000D03*
X162547000Y-110363000D03*
D23*
X156197000Y-105537000D03*
X157747000Y-105537000D03*
D21*
X173736000Y-109106000D03*
X173736000Y-107556000D03*
X164719000Y-107709000D03*
X164719000Y-106159000D03*
D23*
X173911544Y-105410000D03*
X175461544Y-105410000D03*
D16*
X162306000Y-112034000D03*
X162306000Y-114534000D03*
X162687000Y-105938000D03*
X162687000Y-108438000D03*
D19*
X150368000Y-121793000D03*
X176276000Y-121793000D03*
X155448000Y-94996000D03*
D18*
X174752000Y-96647000D03*
D20*
X168402000Y-112840000D03*
X168402000Y-114490000D03*
D24*
X167831000Y-104648000D03*
X169481000Y-104648000D03*
D20*
X172085000Y-100902000D03*
X172085000Y-102552000D03*
D25*
X156149000Y-110189000D03*
X157099000Y-110189000D03*
X158049000Y-110189000D03*
X158049000Y-107489000D03*
X156149000Y-107489000D03*
D26*
X166564000Y-106489500D03*
X166564000Y-107124500D03*
X166564000Y-107759500D03*
X166564000Y-108394500D03*
X166564000Y-109029500D03*
X166564000Y-109664500D03*
X166564000Y-110299500D03*
X166564000Y-110934500D03*
X171764000Y-110934500D03*
X171764000Y-110299500D03*
X171764000Y-109664500D03*
X171764000Y-109029500D03*
X171764000Y-108394500D03*
X171764000Y-107759500D03*
X171764000Y-107124500D03*
X171764000Y-106489500D03*
D19*
X175895000Y-110490000D03*
D27*
X160274000Y-97663000D03*
X161274001Y-95662999D03*
X162274001Y-97663000D03*
X163274002Y-95662999D03*
X164274000Y-97663000D03*
X165274000Y-95662999D03*
X166274001Y-97663000D03*
X167274001Y-95662999D03*
D28*
X168783000Y-101727000D03*
D29*
X166243000Y-101727000D03*
X163703000Y-101727000D03*
X161163000Y-101727000D03*
D28*
X153289000Y-111125000D03*
D29*
X153289000Y-108585000D03*
X153289000Y-106045000D03*
M02*
