G04 #@! TF.GenerationSoftware,KiCad,Pcbnew,(5.99.0-9812-gfee3c41c40)*
G04 #@! TF.CreationDate,2021-03-20T22:32:52-07:00*
G04 #@! TF.ProjectId,homebreakout,686f6d65-6272-4656-916b-6f75742e6b69,rev?*
G04 #@! TF.SameCoordinates,Original*
G04 #@! TF.FileFunction,Copper,L2,Bot*
G04 #@! TF.FilePolarity,Positive*
%FSLAX46Y46*%
G04 Gerber Fmt 4.6, Leading zero omitted, Abs format (unit mm)*
G04 Created by KiCad (PCBNEW (5.99.0-9812-gfee3c41c40)) date 2021-03-20 22:32:52*
%MOMM*%
%LPD*%
G01*
G04 APERTURE LIST*
G04 #@! TA.AperFunction,ComponentPad*
%ADD10O,0.900000X1.800000*%
G04 #@! TD*
G04 #@! TA.AperFunction,ComponentPad*
%ADD11C,1.397000*%
G04 #@! TD*
G04 #@! TA.AperFunction,ComponentPad*
%ADD12R,1.700000X1.700000*%
G04 #@! TD*
G04 #@! TA.AperFunction,ComponentPad*
%ADD13O,1.700000X1.700000*%
G04 #@! TD*
G04 #@! TA.AperFunction,ViaPad*
%ADD14C,0.635000*%
G04 #@! TD*
G04 #@! TA.AperFunction,ViaPad*
%ADD15C,0.762000*%
G04 #@! TD*
G04 #@! TA.AperFunction,ViaPad*
%ADD16C,0.508000*%
G04 #@! TD*
G04 #@! TA.AperFunction,Conductor*
%ADD17C,0.203200*%
G04 #@! TD*
G04 #@! TA.AperFunction,Conductor*
%ADD18C,0.254000*%
G04 #@! TD*
G04 APERTURE END LIST*
D10*
X166880000Y-121462800D03*
X173480000Y-121462800D03*
X153024000Y-121462800D03*
X159624000Y-121462800D03*
D11*
X160274000Y-97663000D03*
X161274001Y-95662999D03*
X162274001Y-97663000D03*
X163274002Y-95662999D03*
X164274000Y-97663000D03*
X165274000Y-95662999D03*
X166274001Y-97663000D03*
X167274001Y-95662999D03*
D12*
X168783000Y-101727000D03*
D13*
X166243000Y-101727000D03*
X163703000Y-101727000D03*
X161163000Y-101727000D03*
D12*
X153289000Y-111125000D03*
D13*
X153289000Y-108585000D03*
X153289000Y-106045000D03*
D14*
X164719000Y-105029000D03*
D15*
X174810800Y-118999000D03*
D14*
X157099000Y-111506000D03*
X172593000Y-112014000D03*
D15*
X157632400Y-116738400D03*
D14*
X158877000Y-105537000D03*
D15*
X172466000Y-117348000D03*
D14*
X160020000Y-107696000D03*
X161417000Y-110363000D03*
D15*
X151384000Y-118973600D03*
D14*
X170434000Y-108331000D03*
X167767000Y-109728000D03*
X173736000Y-106680000D03*
D16*
X174625000Y-104394000D03*
D14*
X164338000Y-109347000D03*
X167990317Y-108854392D03*
X168021000Y-98298000D03*
D17*
X167767000Y-108966000D02*
X167878608Y-108854392D01*
X164719000Y-108966000D02*
X167767000Y-108966000D01*
X167878608Y-108854392D02*
X167990305Y-108854392D01*
X164338000Y-109347000D02*
X164719000Y-108966000D01*
D18*
X167513000Y-99060000D02*
X168021000Y-98552000D01*
X168021000Y-98552000D02*
X168021000Y-98298000D01*
X165227000Y-99060000D02*
X167513000Y-99060000D01*
X164274000Y-98107000D02*
X165227000Y-99060000D01*
X164274000Y-97663000D02*
X164274000Y-98107000D01*
G04 #@! TA.AperFunction,Conductor*
G36*
X162813438Y-94380213D02*
G01*
X162849983Y-94430513D01*
X162849983Y-94492687D01*
X162813438Y-94542987D01*
X162789127Y-94555982D01*
X162756766Y-94567921D01*
X162748470Y-94571878D01*
X162632768Y-94640713D01*
X162624377Y-94650281D01*
X162629150Y-94658936D01*
X163262734Y-95292521D01*
X163274813Y-95298676D01*
X163279925Y-95297866D01*
X163917120Y-94660670D01*
X163923096Y-94648942D01*
X163916905Y-94642157D01*
X163827912Y-94586007D01*
X163819725Y-94581835D01*
X163752558Y-94555038D01*
X163704756Y-94515281D01*
X163689451Y-94455020D01*
X163712491Y-94397272D01*
X163765073Y-94364095D01*
X163789836Y-94361000D01*
X166754306Y-94361000D01*
X166813437Y-94380213D01*
X166849982Y-94430513D01*
X166849982Y-94492687D01*
X166813437Y-94542987D01*
X166789126Y-94555982D01*
X166756765Y-94567921D01*
X166748469Y-94571878D01*
X166632767Y-94640713D01*
X166624376Y-94650281D01*
X166629149Y-94658936D01*
X167262733Y-95292521D01*
X167274812Y-95298676D01*
X167279924Y-95297866D01*
X167917119Y-94660670D01*
X167923095Y-94648942D01*
X167916904Y-94642157D01*
X167827911Y-94586007D01*
X167819724Y-94581835D01*
X167752557Y-94555038D01*
X167704755Y-94515281D01*
X167689450Y-94455020D01*
X167712490Y-94397272D01*
X167765072Y-94364095D01*
X167789835Y-94361000D01*
X176810400Y-94361000D01*
X176869531Y-94380213D01*
X176906076Y-94430513D01*
X176911000Y-94461600D01*
X176911000Y-122454400D01*
X176891787Y-122513531D01*
X176841487Y-122550076D01*
X176810400Y-122555000D01*
X174393166Y-122555000D01*
X174334035Y-122535787D01*
X174297490Y-122485487D01*
X174297490Y-122423313D01*
X174310759Y-122396699D01*
X174317702Y-122386784D01*
X174322646Y-122377935D01*
X174395899Y-122208659D01*
X174398965Y-122198993D01*
X174436935Y-122017243D01*
X174437927Y-122009602D01*
X174437932Y-122009515D01*
X174438000Y-122006912D01*
X174438000Y-121732733D01*
X174433812Y-121719843D01*
X174429623Y-121716800D01*
X174198521Y-121716800D01*
X174139390Y-121697587D01*
X174102845Y-121647287D01*
X174098714Y-121603592D01*
X174115707Y-121469078D01*
X174115707Y-121469077D01*
X174116500Y-121462800D01*
X174105649Y-121376904D01*
X174098714Y-121322008D01*
X174110365Y-121260936D01*
X174155688Y-121218374D01*
X174198521Y-121208800D01*
X174422067Y-121208800D01*
X174434957Y-121204612D01*
X174438000Y-121200423D01*
X174438000Y-120966120D01*
X174437743Y-120961045D01*
X174423846Y-120824233D01*
X174421807Y-120814301D01*
X174366648Y-120638289D01*
X174362660Y-120628983D01*
X174273238Y-120467661D01*
X174267450Y-120459333D01*
X174147422Y-120319293D01*
X174140074Y-120312296D01*
X173994341Y-120199255D01*
X173985737Y-120193879D01*
X173820253Y-120112450D01*
X173810734Y-120108910D01*
X173749420Y-120092939D01*
X173736820Y-120093687D01*
X173734000Y-120103330D01*
X173734000Y-120746781D01*
X173714787Y-120805912D01*
X173664487Y-120842457D01*
X173614549Y-120845599D01*
X173519966Y-120827556D01*
X173472916Y-120830516D01*
X173367050Y-120837176D01*
X173367046Y-120837177D01*
X173360732Y-120837574D01*
X173354713Y-120839530D01*
X173348495Y-120840716D01*
X173348085Y-120838566D01*
X173295502Y-120838560D01*
X173245206Y-120802009D01*
X173226000Y-120742887D01*
X173226000Y-120101326D01*
X173222644Y-120090996D01*
X173210116Y-120091237D01*
X173062633Y-120145501D01*
X173053518Y-120149946D01*
X172896760Y-120247140D01*
X172888727Y-120253327D01*
X172754722Y-120380050D01*
X172748089Y-120387734D01*
X172642295Y-120538822D01*
X172637354Y-120547665D01*
X172564101Y-120716941D01*
X172561035Y-120726607D01*
X172523065Y-120908357D01*
X172522073Y-120915998D01*
X172522068Y-120916085D01*
X172522000Y-120918688D01*
X172522000Y-121192867D01*
X172526188Y-121205757D01*
X172530377Y-121208800D01*
X172763560Y-121208800D01*
X172822691Y-121228013D01*
X172859236Y-121278313D01*
X172861000Y-121334415D01*
X172848519Y-121383025D01*
X172848519Y-121542575D01*
X172861000Y-121591185D01*
X172857095Y-121653234D01*
X172817464Y-121701140D01*
X172763560Y-121716800D01*
X172537933Y-121716800D01*
X172525043Y-121720988D01*
X172522000Y-121725177D01*
X172522000Y-121959480D01*
X172522257Y-121964555D01*
X172536154Y-122101367D01*
X172538193Y-122111299D01*
X172593352Y-122287311D01*
X172597340Y-122296617D01*
X172657766Y-122405628D01*
X172669629Y-122466660D01*
X172643353Y-122523009D01*
X172588974Y-122553152D01*
X172569779Y-122555000D01*
X167793166Y-122555000D01*
X167734035Y-122535787D01*
X167697490Y-122485487D01*
X167697490Y-122423313D01*
X167710759Y-122396699D01*
X167717702Y-122386784D01*
X167722646Y-122377935D01*
X167795899Y-122208659D01*
X167798965Y-122198993D01*
X167836935Y-122017243D01*
X167837927Y-122009602D01*
X167837932Y-122009515D01*
X167838000Y-122006912D01*
X167838000Y-121732733D01*
X167833812Y-121719843D01*
X167829623Y-121716800D01*
X167598521Y-121716800D01*
X167539390Y-121697587D01*
X167502845Y-121647287D01*
X167498714Y-121603592D01*
X167515707Y-121469078D01*
X167515707Y-121469077D01*
X167516500Y-121462800D01*
X167505649Y-121376904D01*
X167498714Y-121322008D01*
X167510365Y-121260936D01*
X167555688Y-121218374D01*
X167598521Y-121208800D01*
X167822067Y-121208800D01*
X167834957Y-121204612D01*
X167838000Y-121200423D01*
X167838000Y-120966120D01*
X167837743Y-120961045D01*
X167823846Y-120824233D01*
X167821807Y-120814301D01*
X167766648Y-120638289D01*
X167762660Y-120628983D01*
X167673238Y-120467661D01*
X167667450Y-120459333D01*
X167547422Y-120319293D01*
X167540074Y-120312296D01*
X167394341Y-120199255D01*
X167385737Y-120193879D01*
X167220253Y-120112450D01*
X167210734Y-120108910D01*
X167149420Y-120092939D01*
X167136820Y-120093687D01*
X167134000Y-120103330D01*
X167134000Y-120746781D01*
X167114787Y-120805912D01*
X167064487Y-120842457D01*
X167014549Y-120845599D01*
X166919966Y-120827556D01*
X166872916Y-120830516D01*
X166767050Y-120837176D01*
X166767046Y-120837177D01*
X166760732Y-120837574D01*
X166754713Y-120839530D01*
X166748495Y-120840716D01*
X166748085Y-120838566D01*
X166695502Y-120838560D01*
X166645206Y-120802009D01*
X166626000Y-120742887D01*
X166626000Y-120101326D01*
X166622644Y-120090996D01*
X166610116Y-120091237D01*
X166462633Y-120145501D01*
X166453518Y-120149946D01*
X166296760Y-120247140D01*
X166288727Y-120253327D01*
X166154722Y-120380050D01*
X166148089Y-120387734D01*
X166042295Y-120538822D01*
X166037354Y-120547665D01*
X165964101Y-120716941D01*
X165961035Y-120726607D01*
X165923065Y-120908357D01*
X165922073Y-120915998D01*
X165922068Y-120916085D01*
X165922000Y-120918688D01*
X165922000Y-121192867D01*
X165926188Y-121205757D01*
X165930377Y-121208800D01*
X166163560Y-121208800D01*
X166222691Y-121228013D01*
X166259236Y-121278313D01*
X166261000Y-121334415D01*
X166248519Y-121383025D01*
X166248519Y-121542575D01*
X166261000Y-121591185D01*
X166257095Y-121653234D01*
X166217464Y-121701140D01*
X166163560Y-121716800D01*
X165937933Y-121716800D01*
X165925043Y-121720988D01*
X165922000Y-121725177D01*
X165922000Y-121959480D01*
X165922257Y-121964555D01*
X165936154Y-122101367D01*
X165938193Y-122111299D01*
X165993352Y-122287311D01*
X165997340Y-122296617D01*
X166057766Y-122405628D01*
X166069629Y-122466660D01*
X166043353Y-122523009D01*
X165988974Y-122553152D01*
X165969779Y-122555000D01*
X160537166Y-122555000D01*
X160478035Y-122535787D01*
X160441490Y-122485487D01*
X160441490Y-122423313D01*
X160454759Y-122396699D01*
X160461702Y-122386784D01*
X160466646Y-122377935D01*
X160539899Y-122208659D01*
X160542965Y-122198993D01*
X160580935Y-122017243D01*
X160581927Y-122009602D01*
X160581932Y-122009515D01*
X160582000Y-122006912D01*
X160582000Y-121732733D01*
X160577812Y-121719843D01*
X160573623Y-121716800D01*
X160342521Y-121716800D01*
X160283390Y-121697587D01*
X160246845Y-121647287D01*
X160242714Y-121603592D01*
X160259707Y-121469078D01*
X160259707Y-121469077D01*
X160260500Y-121462800D01*
X160249649Y-121376904D01*
X160242714Y-121322008D01*
X160254365Y-121260936D01*
X160299688Y-121218374D01*
X160342521Y-121208800D01*
X160566067Y-121208800D01*
X160578957Y-121204612D01*
X160582000Y-121200423D01*
X160582000Y-120966120D01*
X160581743Y-120961045D01*
X160567846Y-120824233D01*
X160565807Y-120814301D01*
X160510648Y-120638289D01*
X160506660Y-120628983D01*
X160417238Y-120467661D01*
X160411450Y-120459333D01*
X160291422Y-120319293D01*
X160284074Y-120312296D01*
X160138341Y-120199255D01*
X160129737Y-120193879D01*
X159964253Y-120112450D01*
X159954734Y-120108910D01*
X159893420Y-120092939D01*
X159880820Y-120093687D01*
X159878000Y-120103330D01*
X159878000Y-120746781D01*
X159858787Y-120805912D01*
X159808487Y-120842457D01*
X159758549Y-120845599D01*
X159663966Y-120827556D01*
X159616916Y-120830516D01*
X159511050Y-120837176D01*
X159511046Y-120837177D01*
X159504732Y-120837574D01*
X159498713Y-120839530D01*
X159492495Y-120840716D01*
X159492085Y-120838566D01*
X159439502Y-120838560D01*
X159389206Y-120802009D01*
X159370000Y-120742887D01*
X159370000Y-120101326D01*
X159366644Y-120090996D01*
X159354116Y-120091237D01*
X159206633Y-120145501D01*
X159197518Y-120149946D01*
X159040760Y-120247140D01*
X159032727Y-120253327D01*
X158898722Y-120380050D01*
X158892089Y-120387734D01*
X158786295Y-120538822D01*
X158781354Y-120547665D01*
X158708101Y-120716941D01*
X158705035Y-120726607D01*
X158667065Y-120908357D01*
X158666073Y-120915998D01*
X158666068Y-120916085D01*
X158666000Y-120918688D01*
X158666000Y-121192867D01*
X158670188Y-121205757D01*
X158674377Y-121208800D01*
X158907560Y-121208800D01*
X158966691Y-121228013D01*
X159003236Y-121278313D01*
X159005000Y-121334415D01*
X158992519Y-121383025D01*
X158992519Y-121542575D01*
X159005000Y-121591185D01*
X159001095Y-121653234D01*
X158961464Y-121701140D01*
X158907560Y-121716800D01*
X158681933Y-121716800D01*
X158669043Y-121720988D01*
X158666000Y-121725177D01*
X158666000Y-121959480D01*
X158666257Y-121964555D01*
X158680154Y-122101367D01*
X158682193Y-122111299D01*
X158737352Y-122287311D01*
X158741340Y-122296617D01*
X158801766Y-122405628D01*
X158813629Y-122466660D01*
X158787353Y-122523009D01*
X158732974Y-122553152D01*
X158713779Y-122555000D01*
X153937166Y-122555000D01*
X153878035Y-122535787D01*
X153841490Y-122485487D01*
X153841490Y-122423313D01*
X153854759Y-122396699D01*
X153861702Y-122386784D01*
X153866646Y-122377935D01*
X153939899Y-122208659D01*
X153942965Y-122198993D01*
X153980935Y-122017243D01*
X153981927Y-122009602D01*
X153981932Y-122009515D01*
X153982000Y-122006912D01*
X153982000Y-121732733D01*
X153977812Y-121719843D01*
X153973623Y-121716800D01*
X153742521Y-121716800D01*
X153683390Y-121697587D01*
X153646845Y-121647287D01*
X153642714Y-121603592D01*
X153659707Y-121469078D01*
X153659707Y-121469077D01*
X153660500Y-121462800D01*
X153649649Y-121376904D01*
X153642714Y-121322008D01*
X153654365Y-121260936D01*
X153699688Y-121218374D01*
X153742521Y-121208800D01*
X153966067Y-121208800D01*
X153978957Y-121204612D01*
X153982000Y-121200423D01*
X153982000Y-120966120D01*
X153981743Y-120961045D01*
X153967846Y-120824233D01*
X153965807Y-120814301D01*
X153910648Y-120638289D01*
X153906660Y-120628983D01*
X153817238Y-120467661D01*
X153811450Y-120459333D01*
X153691422Y-120319293D01*
X153684074Y-120312296D01*
X153538341Y-120199255D01*
X153529737Y-120193879D01*
X153364253Y-120112450D01*
X153354734Y-120108910D01*
X153293420Y-120092939D01*
X153280820Y-120093687D01*
X153278000Y-120103330D01*
X153278000Y-120746781D01*
X153258787Y-120805912D01*
X153208487Y-120842457D01*
X153158549Y-120845599D01*
X153063966Y-120827556D01*
X153016916Y-120830516D01*
X152911050Y-120837176D01*
X152911046Y-120837177D01*
X152904732Y-120837574D01*
X152898713Y-120839530D01*
X152892495Y-120840716D01*
X152892085Y-120838566D01*
X152839502Y-120838560D01*
X152789206Y-120802009D01*
X152770000Y-120742887D01*
X152770000Y-120101326D01*
X152766644Y-120090996D01*
X152754116Y-120091237D01*
X152606633Y-120145501D01*
X152597518Y-120149946D01*
X152440760Y-120247140D01*
X152432727Y-120253327D01*
X152298722Y-120380050D01*
X152292089Y-120387734D01*
X152186295Y-120538822D01*
X152181354Y-120547665D01*
X152108101Y-120716941D01*
X152105035Y-120726607D01*
X152067065Y-120908357D01*
X152066073Y-120915998D01*
X152066068Y-120916085D01*
X152066000Y-120918688D01*
X152066000Y-121192867D01*
X152070188Y-121205757D01*
X152074377Y-121208800D01*
X152307560Y-121208800D01*
X152366691Y-121228013D01*
X152403236Y-121278313D01*
X152405000Y-121334415D01*
X152392519Y-121383025D01*
X152392519Y-121542575D01*
X152405000Y-121591185D01*
X152401095Y-121653234D01*
X152361464Y-121701140D01*
X152307560Y-121716800D01*
X152081933Y-121716800D01*
X152069043Y-121720988D01*
X152066000Y-121725177D01*
X152066000Y-121959480D01*
X152066257Y-121964555D01*
X152080154Y-122101367D01*
X152082193Y-122111299D01*
X152137352Y-122287311D01*
X152141340Y-122296617D01*
X152201766Y-122405628D01*
X152213629Y-122466660D01*
X152187353Y-122523009D01*
X152132974Y-122553152D01*
X152113779Y-122555000D01*
X149833600Y-122555000D01*
X149774469Y-122535787D01*
X149737924Y-122485487D01*
X149733000Y-122454400D01*
X149733000Y-111387377D01*
X151926000Y-111387377D01*
X151926000Y-111973208D01*
X151926127Y-111976782D01*
X151930838Y-112042633D01*
X151932741Y-112053180D01*
X151970331Y-112181203D01*
X151976250Y-112194163D01*
X152047410Y-112304891D01*
X152056736Y-112315654D01*
X152156216Y-112401853D01*
X152168194Y-112409551D01*
X152287927Y-112464232D01*
X152301592Y-112468244D01*
X152435439Y-112487488D01*
X152442598Y-112488000D01*
X153019067Y-112488000D01*
X153031957Y-112483812D01*
X153035000Y-112479623D01*
X153035000Y-111394933D01*
X153032545Y-111387377D01*
X153543000Y-111387377D01*
X153543000Y-112472067D01*
X153547188Y-112484957D01*
X153551377Y-112488000D01*
X154137208Y-112488000D01*
X154140782Y-112487873D01*
X154206633Y-112483162D01*
X154217180Y-112481259D01*
X154345203Y-112443669D01*
X154358163Y-112437750D01*
X154468891Y-112366590D01*
X154479654Y-112357264D01*
X154565853Y-112257784D01*
X154573551Y-112245806D01*
X154628232Y-112126073D01*
X154632244Y-112112408D01*
X154651488Y-111978561D01*
X154652000Y-111971402D01*
X154652000Y-111394933D01*
X154647812Y-111382043D01*
X154643623Y-111379000D01*
X153558933Y-111379000D01*
X153546043Y-111383188D01*
X153543000Y-111387377D01*
X153032545Y-111387377D01*
X153030812Y-111382043D01*
X153026623Y-111379000D01*
X151941933Y-111379000D01*
X151929043Y-111383188D01*
X151926000Y-111387377D01*
X149733000Y-111387377D01*
X149733000Y-110278598D01*
X151926000Y-110278598D01*
X151926000Y-110855067D01*
X151930188Y-110867957D01*
X151934377Y-110871000D01*
X154636067Y-110871000D01*
X154648957Y-110866812D01*
X154652000Y-110862623D01*
X154652000Y-110276792D01*
X154651873Y-110273218D01*
X154647162Y-110207367D01*
X154645259Y-110196820D01*
X154607669Y-110068797D01*
X154601750Y-110055837D01*
X154530590Y-109945109D01*
X154521264Y-109934346D01*
X154421784Y-109848147D01*
X154409806Y-109840449D01*
X154290073Y-109785768D01*
X154276408Y-109781756D01*
X154142561Y-109762512D01*
X154135402Y-109762000D01*
X154081596Y-109762000D01*
X154022465Y-109742787D01*
X153985920Y-109692487D01*
X153985920Y-109630313D01*
X154017326Y-109587104D01*
X154015796Y-109585350D01*
X154073699Y-109534838D01*
X154181457Y-109440835D01*
X154262539Y-109339628D01*
X163634039Y-109339628D01*
X163634704Y-109345650D01*
X163651934Y-109501731D01*
X163651935Y-109501735D01*
X163652600Y-109507759D01*
X163654685Y-109513456D01*
X163697449Y-109630313D01*
X163710731Y-109666609D01*
X163714117Y-109671648D01*
X163784206Y-109775951D01*
X163805075Y-109807008D01*
X163930186Y-109920850D01*
X163935513Y-109923743D01*
X163935514Y-109923743D01*
X164073507Y-109998668D01*
X164073511Y-109998670D01*
X164078840Y-110001563D01*
X164084710Y-110003103D01*
X164236589Y-110042947D01*
X164236590Y-110042947D01*
X164242456Y-110044486D01*
X164324448Y-110045774D01*
X164405525Y-110047048D01*
X164405527Y-110047048D01*
X164411588Y-110047143D01*
X164417499Y-110045789D01*
X164417501Y-110045789D01*
X164570561Y-110010734D01*
X164570564Y-110010733D01*
X164576471Y-110009380D01*
X164610598Y-109992216D01*
X164722169Y-109936103D01*
X164722172Y-109936101D01*
X164727588Y-109933377D01*
X164856212Y-109823521D01*
X164954920Y-109686155D01*
X165018012Y-109529209D01*
X165018817Y-109523551D01*
X165052602Y-109471522D01*
X165115915Y-109449100D01*
X167595369Y-109449100D01*
X167643371Y-109461291D01*
X167731157Y-109508955D01*
X167737027Y-109510495D01*
X167888906Y-109550339D01*
X167888907Y-109550339D01*
X167894773Y-109551878D01*
X167976765Y-109553166D01*
X168057842Y-109554440D01*
X168057844Y-109554440D01*
X168063905Y-109554535D01*
X168069816Y-109553181D01*
X168069818Y-109553181D01*
X168222878Y-109518126D01*
X168222881Y-109518125D01*
X168228788Y-109516772D01*
X168318759Y-109471522D01*
X168374486Y-109443495D01*
X168374489Y-109443493D01*
X168379905Y-109440769D01*
X168508529Y-109330913D01*
X168607237Y-109193547D01*
X168670329Y-109036601D01*
X168672696Y-109019975D01*
X168693698Y-108872402D01*
X168694163Y-108869135D01*
X168694317Y-108854392D01*
X168673996Y-108686464D01*
X168614204Y-108528232D01*
X168518395Y-108388828D01*
X168392099Y-108276303D01*
X168300138Y-108227612D01*
X168247970Y-108199990D01*
X168242608Y-108197151D01*
X168189148Y-108183723D01*
X168084438Y-108157421D01*
X168084434Y-108157421D01*
X168078552Y-108155943D01*
X168072487Y-108155911D01*
X168072485Y-108155911D01*
X168000552Y-108155535D01*
X167909401Y-108155058D01*
X167903511Y-108156472D01*
X167750814Y-108193130D01*
X167750810Y-108193131D01*
X167744922Y-108194545D01*
X167594610Y-108272127D01*
X167590040Y-108276114D01*
X167486962Y-108366035D01*
X167467143Y-108383324D01*
X167463655Y-108388286D01*
X167463653Y-108388289D01*
X167427206Y-108440146D01*
X167377486Y-108477477D01*
X167344901Y-108482900D01*
X164784528Y-108482900D01*
X164772285Y-108481532D01*
X164772277Y-108481630D01*
X164765139Y-108481056D01*
X164758145Y-108479473D01*
X164711336Y-108482377D01*
X164706009Y-108482707D01*
X164699781Y-108482900D01*
X164684087Y-108482900D01*
X164673708Y-108484386D01*
X164665691Y-108485208D01*
X164653345Y-108485973D01*
X164627170Y-108487597D01*
X164627167Y-108487598D01*
X164620019Y-108488041D01*
X164613281Y-108490474D01*
X164613279Y-108490474D01*
X164611194Y-108491227D01*
X164591295Y-108496189D01*
X164589101Y-108496503D01*
X164589100Y-108496503D01*
X164582007Y-108497519D01*
X164540350Y-108516459D01*
X164532888Y-108519497D01*
X164496595Y-108532599D01*
X164496593Y-108532600D01*
X164489851Y-108535034D01*
X164484065Y-108539261D01*
X164484059Y-108539264D01*
X164482272Y-108540570D01*
X164464572Y-108550913D01*
X164462550Y-108551832D01*
X164462546Y-108551834D01*
X164456026Y-108554799D01*
X164450599Y-108559475D01*
X164450598Y-108559476D01*
X164421377Y-108584655D01*
X164415051Y-108589677D01*
X164407293Y-108595344D01*
X164407279Y-108595356D01*
X164404155Y-108597638D01*
X164393381Y-108608412D01*
X164387915Y-108613487D01*
X164376232Y-108623554D01*
X164318895Y-108647598D01*
X164310037Y-108647943D01*
X164257084Y-108647666D01*
X164251194Y-108649080D01*
X164098497Y-108685738D01*
X164098493Y-108685739D01*
X164092605Y-108687153D01*
X163942293Y-108764735D01*
X163937723Y-108768722D01*
X163822618Y-108869135D01*
X163814826Y-108875932D01*
X163717562Y-109014324D01*
X163656117Y-109171922D01*
X163655325Y-109177938D01*
X163635835Y-109325989D01*
X163634039Y-109339628D01*
X154262539Y-109339628D01*
X154318907Y-109269269D01*
X154423804Y-109076073D01*
X154442357Y-109019975D01*
X154491422Y-108871613D01*
X154492830Y-108867356D01*
X154523805Y-108649713D01*
X154525500Y-108585000D01*
X154511029Y-108422851D01*
X154506356Y-108370493D01*
X154506356Y-108370491D01*
X154505958Y-108366035D01*
X154447949Y-108153991D01*
X154353308Y-107955570D01*
X154271135Y-107841214D01*
X154227639Y-107780684D01*
X154227638Y-107780683D01*
X154225024Y-107777045D01*
X154067155Y-107624059D01*
X154063435Y-107621559D01*
X154063431Y-107621556D01*
X153888408Y-107503947D01*
X153884688Y-107501447D01*
X153683393Y-107413084D01*
X153676883Y-107411521D01*
X153676132Y-107411061D01*
X153674795Y-107410611D01*
X153674898Y-107410305D01*
X153623872Y-107379040D01*
X153600076Y-107321600D01*
X153614586Y-107261143D01*
X153664805Y-107219596D01*
X153822963Y-107159832D01*
X153822972Y-107159828D01*
X153827163Y-107158244D01*
X154015796Y-107045350D01*
X154181457Y-106900835D01*
X154318907Y-106729269D01*
X154423804Y-106536073D01*
X154492830Y-106327356D01*
X154523805Y-106109713D01*
X154525500Y-106045000D01*
X154505958Y-105826035D01*
X154447949Y-105613991D01*
X154353308Y-105415570D01*
X154271135Y-105301214D01*
X154227639Y-105240684D01*
X154227638Y-105240683D01*
X154225024Y-105237045D01*
X154067155Y-105084059D01*
X154063435Y-105081559D01*
X154063431Y-105081556D01*
X153888408Y-104963947D01*
X153884688Y-104961447D01*
X153683393Y-104873084D01*
X153672584Y-104870489D01*
X153473999Y-104822813D01*
X153473995Y-104822812D01*
X153469632Y-104821765D01*
X153250161Y-104809110D01*
X153245716Y-104809648D01*
X153245713Y-104809648D01*
X153036361Y-104834982D01*
X153036359Y-104834983D01*
X153031917Y-104835520D01*
X153027644Y-104836835D01*
X153027642Y-104836835D01*
X152957791Y-104858324D01*
X152821800Y-104900161D01*
X152626450Y-105000989D01*
X152622892Y-105003719D01*
X152622889Y-105003721D01*
X152455595Y-105132090D01*
X152455592Y-105132093D01*
X152452043Y-105134816D01*
X152304091Y-105297413D01*
X152301707Y-105301214D01*
X152232258Y-105411925D01*
X152187270Y-105483641D01*
X152105274Y-105687612D01*
X152060695Y-105902880D01*
X152060578Y-105907354D01*
X152055279Y-106109713D01*
X152054940Y-106122640D01*
X152088192Y-106339947D01*
X152089642Y-106344182D01*
X152089643Y-106344186D01*
X152157947Y-106543685D01*
X152157950Y-106543691D01*
X152159401Y-106547930D01*
X152161582Y-106551848D01*
X152161584Y-106551853D01*
X152237718Y-106688637D01*
X152266315Y-106740016D01*
X152269150Y-106743480D01*
X152269153Y-106743484D01*
X152335935Y-106825075D01*
X152405555Y-106910134D01*
X152408955Y-106913038D01*
X152408959Y-106913042D01*
X152498466Y-106989487D01*
X152572719Y-107052906D01*
X152762524Y-107163819D01*
X152879418Y-107206596D01*
X152919129Y-107221128D01*
X152968056Y-107259492D01*
X152985089Y-107319287D01*
X152963723Y-107377675D01*
X152914138Y-107411754D01*
X152821800Y-107440161D01*
X152626450Y-107540989D01*
X152622892Y-107543719D01*
X152622889Y-107543721D01*
X152455595Y-107672090D01*
X152455592Y-107672093D01*
X152452043Y-107674816D01*
X152304091Y-107837413D01*
X152301707Y-107841214D01*
X152232258Y-107951925D01*
X152187270Y-108023641D01*
X152105274Y-108227612D01*
X152104366Y-108231997D01*
X152104365Y-108232000D01*
X152095778Y-108273465D01*
X152060695Y-108442880D01*
X152058768Y-108516452D01*
X152055279Y-108649713D01*
X152054940Y-108662640D01*
X152088192Y-108879947D01*
X152089642Y-108884182D01*
X152089643Y-108884186D01*
X152157947Y-109083685D01*
X152157950Y-109083691D01*
X152159401Y-109087930D01*
X152161582Y-109091848D01*
X152161584Y-109091853D01*
X152206150Y-109171922D01*
X152266315Y-109280016D01*
X152269150Y-109283480D01*
X152269153Y-109283484D01*
X152303943Y-109325989D01*
X152405555Y-109450134D01*
X152408955Y-109453038D01*
X152408959Y-109453042D01*
X152504730Y-109534838D01*
X152527793Y-109554535D01*
X152563349Y-109584903D01*
X152595834Y-109637915D01*
X152590956Y-109699898D01*
X152550577Y-109747176D01*
X152498014Y-109762000D01*
X152440792Y-109762000D01*
X152437218Y-109762127D01*
X152371367Y-109766838D01*
X152360820Y-109768741D01*
X152232797Y-109806331D01*
X152219837Y-109812250D01*
X152109109Y-109883410D01*
X152098346Y-109892736D01*
X152012147Y-109992216D01*
X152004449Y-110004194D01*
X151949768Y-110123927D01*
X151945756Y-110137592D01*
X151926512Y-110271439D01*
X151926000Y-110278598D01*
X149733000Y-110278598D01*
X149733000Y-101804640D01*
X159928940Y-101804640D01*
X159962192Y-102021947D01*
X159963642Y-102026182D01*
X159963643Y-102026186D01*
X160031947Y-102225685D01*
X160031950Y-102225691D01*
X160033401Y-102229930D01*
X160035582Y-102233848D01*
X160035584Y-102233853D01*
X160111718Y-102370637D01*
X160140315Y-102422016D01*
X160143150Y-102425480D01*
X160143153Y-102425484D01*
X160170505Y-102458901D01*
X160279555Y-102592134D01*
X160282955Y-102595038D01*
X160282959Y-102595042D01*
X160341023Y-102644633D01*
X160446719Y-102734906D01*
X160636524Y-102845819D01*
X160842970Y-102921367D01*
X160847379Y-102922137D01*
X160847381Y-102922137D01*
X161052937Y-102958012D01*
X161059532Y-102959163D01*
X161064004Y-102959140D01*
X161064009Y-102959140D01*
X161168209Y-102958594D01*
X161279365Y-102958012D01*
X161495519Y-102917951D01*
X161701163Y-102840244D01*
X161889796Y-102727350D01*
X162055457Y-102582835D01*
X162061568Y-102575208D01*
X162124182Y-102497052D01*
X162192907Y-102411269D01*
X162297804Y-102218073D01*
X162337360Y-102098464D01*
X162374167Y-102048357D01*
X162433398Y-102029453D01*
X162492428Y-102048975D01*
X162528048Y-102097466D01*
X162571947Y-102225685D01*
X162571950Y-102225691D01*
X162573401Y-102229930D01*
X162575582Y-102233848D01*
X162575584Y-102233853D01*
X162651718Y-102370637D01*
X162680315Y-102422016D01*
X162683150Y-102425480D01*
X162683153Y-102425484D01*
X162710505Y-102458901D01*
X162819555Y-102592134D01*
X162822955Y-102595038D01*
X162822959Y-102595042D01*
X162881023Y-102644633D01*
X162986719Y-102734906D01*
X163176524Y-102845819D01*
X163382970Y-102921367D01*
X163387379Y-102922137D01*
X163387381Y-102922137D01*
X163592937Y-102958012D01*
X163599532Y-102959163D01*
X163604004Y-102959140D01*
X163604009Y-102959140D01*
X163708209Y-102958594D01*
X163819365Y-102958012D01*
X164035519Y-102917951D01*
X164241163Y-102840244D01*
X164429796Y-102727350D01*
X164595457Y-102582835D01*
X164601568Y-102575208D01*
X164664182Y-102497052D01*
X164732907Y-102411269D01*
X164837804Y-102218073D01*
X164877360Y-102098464D01*
X164914167Y-102048357D01*
X164973398Y-102029453D01*
X165032428Y-102048975D01*
X165068048Y-102097466D01*
X165111947Y-102225685D01*
X165111950Y-102225691D01*
X165113401Y-102229930D01*
X165115582Y-102233848D01*
X165115584Y-102233853D01*
X165191718Y-102370637D01*
X165220315Y-102422016D01*
X165223150Y-102425480D01*
X165223153Y-102425484D01*
X165250505Y-102458901D01*
X165359555Y-102592134D01*
X165362955Y-102595038D01*
X165362959Y-102595042D01*
X165421023Y-102644633D01*
X165526719Y-102734906D01*
X165716524Y-102845819D01*
X165922970Y-102921367D01*
X165927379Y-102922137D01*
X165927381Y-102922137D01*
X166132937Y-102958012D01*
X166139532Y-102959163D01*
X166144004Y-102959140D01*
X166144009Y-102959140D01*
X166248209Y-102958594D01*
X166359365Y-102958012D01*
X166575519Y-102917951D01*
X166781163Y-102840244D01*
X166969796Y-102727350D01*
X167135457Y-102582835D01*
X167141568Y-102575208D01*
X167240889Y-102451234D01*
X167292854Y-102417099D01*
X167354959Y-102420027D01*
X167403482Y-102458901D01*
X167420000Y-102514133D01*
X167420000Y-102575208D01*
X167420127Y-102578782D01*
X167424838Y-102644633D01*
X167426741Y-102655180D01*
X167464331Y-102783203D01*
X167470250Y-102796163D01*
X167541410Y-102906891D01*
X167550736Y-102917654D01*
X167650216Y-103003853D01*
X167662194Y-103011551D01*
X167781927Y-103066232D01*
X167795592Y-103070244D01*
X167929439Y-103089488D01*
X167936598Y-103090000D01*
X168513067Y-103090000D01*
X168525957Y-103085812D01*
X168529000Y-103081623D01*
X168529000Y-101989377D01*
X169037000Y-101989377D01*
X169037000Y-103074067D01*
X169041188Y-103086957D01*
X169045377Y-103090000D01*
X169631208Y-103090000D01*
X169634782Y-103089873D01*
X169700633Y-103085162D01*
X169711180Y-103083259D01*
X169839203Y-103045669D01*
X169852163Y-103039750D01*
X169962891Y-102968590D01*
X169973654Y-102959264D01*
X170059853Y-102859784D01*
X170067551Y-102847806D01*
X170122232Y-102728073D01*
X170126244Y-102714408D01*
X170145488Y-102580561D01*
X170146000Y-102573402D01*
X170146000Y-101996933D01*
X170141812Y-101984043D01*
X170137623Y-101981000D01*
X169052933Y-101981000D01*
X169040043Y-101985188D01*
X169037000Y-101989377D01*
X168529000Y-101989377D01*
X168529000Y-100379933D01*
X168526545Y-100372377D01*
X169037000Y-100372377D01*
X169037000Y-101457067D01*
X169041188Y-101469957D01*
X169045377Y-101473000D01*
X170130067Y-101473000D01*
X170142957Y-101468812D01*
X170146000Y-101464623D01*
X170146000Y-100878792D01*
X170145873Y-100875218D01*
X170141162Y-100809367D01*
X170139259Y-100798820D01*
X170101669Y-100670797D01*
X170095750Y-100657837D01*
X170024590Y-100547109D01*
X170015264Y-100536346D01*
X169915784Y-100450147D01*
X169903806Y-100442449D01*
X169784073Y-100387768D01*
X169770408Y-100383756D01*
X169636561Y-100364512D01*
X169629402Y-100364000D01*
X169052933Y-100364000D01*
X169040043Y-100368188D01*
X169037000Y-100372377D01*
X168526545Y-100372377D01*
X168524812Y-100367043D01*
X168520623Y-100364000D01*
X167934792Y-100364000D01*
X167931218Y-100364127D01*
X167865367Y-100368838D01*
X167854820Y-100370741D01*
X167726797Y-100408331D01*
X167713837Y-100414250D01*
X167603109Y-100485410D01*
X167592346Y-100494736D01*
X167506147Y-100594216D01*
X167498449Y-100606194D01*
X167443768Y-100725927D01*
X167439756Y-100739592D01*
X167420512Y-100873439D01*
X167420000Y-100880598D01*
X167420000Y-100942004D01*
X167400787Y-101001135D01*
X167350487Y-101037680D01*
X167288313Y-101037680D01*
X167237706Y-101000710D01*
X167179024Y-100919045D01*
X167021155Y-100766059D01*
X167017435Y-100763559D01*
X167017431Y-100763556D01*
X166879389Y-100670797D01*
X166838688Y-100643447D01*
X166637393Y-100555084D01*
X166626584Y-100552489D01*
X166427999Y-100504813D01*
X166427995Y-100504812D01*
X166423632Y-100503765D01*
X166204161Y-100491110D01*
X166199716Y-100491648D01*
X166199713Y-100491648D01*
X165990361Y-100516982D01*
X165990359Y-100516983D01*
X165985917Y-100517520D01*
X165981644Y-100518835D01*
X165981642Y-100518835D01*
X165924723Y-100536346D01*
X165775800Y-100582161D01*
X165580450Y-100682989D01*
X165576892Y-100685719D01*
X165576889Y-100685721D01*
X165409595Y-100814090D01*
X165409592Y-100814093D01*
X165406043Y-100816816D01*
X165403032Y-100820125D01*
X165292131Y-100942004D01*
X165258091Y-100979413D01*
X165255707Y-100983214D01*
X165186258Y-101093925D01*
X165141270Y-101165641D01*
X165139600Y-101169795D01*
X165139596Y-101169803D01*
X165065336Y-101354533D01*
X165025455Y-101402231D01*
X164965154Y-101417378D01*
X164907466Y-101394188D01*
X164874962Y-101343557D01*
X164863133Y-101300319D01*
X164861949Y-101295991D01*
X164767308Y-101097570D01*
X164724273Y-101037680D01*
X164641639Y-100922684D01*
X164641638Y-100922683D01*
X164639024Y-100919045D01*
X164481155Y-100766059D01*
X164477435Y-100763559D01*
X164477431Y-100763556D01*
X164339389Y-100670797D01*
X164298688Y-100643447D01*
X164097393Y-100555084D01*
X164086584Y-100552489D01*
X163887999Y-100504813D01*
X163887995Y-100504812D01*
X163883632Y-100503765D01*
X163664161Y-100491110D01*
X163659716Y-100491648D01*
X163659713Y-100491648D01*
X163450361Y-100516982D01*
X163450359Y-100516983D01*
X163445917Y-100517520D01*
X163441644Y-100518835D01*
X163441642Y-100518835D01*
X163384723Y-100536346D01*
X163235800Y-100582161D01*
X163040450Y-100682989D01*
X163036892Y-100685719D01*
X163036889Y-100685721D01*
X162869595Y-100814090D01*
X162869592Y-100814093D01*
X162866043Y-100816816D01*
X162863032Y-100820125D01*
X162752131Y-100942004D01*
X162718091Y-100979413D01*
X162715707Y-100983214D01*
X162646258Y-101093925D01*
X162601270Y-101165641D01*
X162599600Y-101169795D01*
X162599596Y-101169803D01*
X162525336Y-101354533D01*
X162485455Y-101402231D01*
X162425154Y-101417378D01*
X162367466Y-101394188D01*
X162334962Y-101343557D01*
X162323133Y-101300319D01*
X162321949Y-101295991D01*
X162227308Y-101097570D01*
X162184273Y-101037680D01*
X162101639Y-100922684D01*
X162101638Y-100922683D01*
X162099024Y-100919045D01*
X161941155Y-100766059D01*
X161937435Y-100763559D01*
X161937431Y-100763556D01*
X161799389Y-100670797D01*
X161758688Y-100643447D01*
X161557393Y-100555084D01*
X161546584Y-100552489D01*
X161347999Y-100504813D01*
X161347995Y-100504812D01*
X161343632Y-100503765D01*
X161124161Y-100491110D01*
X161119716Y-100491648D01*
X161119713Y-100491648D01*
X160910361Y-100516982D01*
X160910359Y-100516983D01*
X160905917Y-100517520D01*
X160901644Y-100518835D01*
X160901642Y-100518835D01*
X160844723Y-100536346D01*
X160695800Y-100582161D01*
X160500450Y-100682989D01*
X160496892Y-100685719D01*
X160496889Y-100685721D01*
X160329595Y-100814090D01*
X160329592Y-100814093D01*
X160326043Y-100816816D01*
X160323032Y-100820125D01*
X160212131Y-100942004D01*
X160178091Y-100979413D01*
X160175707Y-100983214D01*
X160106258Y-101093925D01*
X160061270Y-101165641D01*
X159979274Y-101369612D01*
X159978366Y-101373997D01*
X159978365Y-101374000D01*
X159958731Y-101468812D01*
X159934695Y-101584880D01*
X159934578Y-101589354D01*
X159929279Y-101791713D01*
X159928940Y-101804640D01*
X149733000Y-101804640D01*
X149733000Y-98677468D01*
X159624667Y-98677468D01*
X159624675Y-98677515D01*
X159630287Y-98683830D01*
X159692084Y-98725123D01*
X159700163Y-98729509D01*
X159895387Y-98813384D01*
X159904126Y-98816223D01*
X160111368Y-98863117D01*
X160120477Y-98864316D01*
X160332796Y-98872659D01*
X160341967Y-98872179D01*
X160552257Y-98841688D01*
X160561186Y-98839544D01*
X160762397Y-98771241D01*
X160770782Y-98767508D01*
X160916182Y-98686081D01*
X160924515Y-98677065D01*
X160919533Y-98667744D01*
X160285268Y-98033478D01*
X160273189Y-98027323D01*
X160268077Y-98028133D01*
X159630821Y-98665390D01*
X159624667Y-98677468D01*
X149733000Y-98677468D01*
X149733000Y-96610682D01*
X150532944Y-96610682D01*
X150533182Y-96614807D01*
X150546610Y-96847681D01*
X150546967Y-96853881D01*
X150600522Y-97091524D01*
X150692171Y-97317229D01*
X150694322Y-97320739D01*
X150694325Y-97320745D01*
X150785046Y-97468787D01*
X150819453Y-97524935D01*
X150822154Y-97528053D01*
X150946092Y-97671131D01*
X150978950Y-97709064D01*
X150982118Y-97711694D01*
X150982123Y-97711699D01*
X151127153Y-97832104D01*
X151166379Y-97864670D01*
X151247976Y-97912351D01*
X151339281Y-97965705D01*
X151376705Y-97987574D01*
X151604280Y-98074477D01*
X151842993Y-98123043D01*
X152086432Y-98131970D01*
X152202291Y-98117128D01*
X152323973Y-98101540D01*
X152323977Y-98101539D01*
X152328061Y-98101016D01*
X152561389Y-98031014D01*
X152780152Y-97923844D01*
X152850390Y-97873744D01*
X152975113Y-97784780D01*
X152975116Y-97784778D01*
X152978473Y-97782383D01*
X153125477Y-97635891D01*
X159063217Y-97635891D01*
X159077115Y-97847926D01*
X159078549Y-97856983D01*
X159130854Y-98062935D01*
X159133923Y-98071600D01*
X159222877Y-98264557D01*
X159227474Y-98272519D01*
X159250493Y-98305090D01*
X159261352Y-98313199D01*
X159262111Y-98313209D01*
X159268344Y-98309445D01*
X159903522Y-97674268D01*
X159909677Y-97662189D01*
X159908867Y-97657077D01*
X159268188Y-97016398D01*
X159257661Y-97011034D01*
X159249658Y-97018933D01*
X159156866Y-97195300D01*
X159153353Y-97203782D01*
X159090340Y-97406715D01*
X159088433Y-97415689D01*
X159063457Y-97626705D01*
X159063217Y-97635891D01*
X153125477Y-97635891D01*
X153151027Y-97610430D01*
X153293179Y-97412604D01*
X153401113Y-97194217D01*
X153402311Y-97190272D01*
X153402314Y-97190266D01*
X153470728Y-96965087D01*
X153471929Y-96961134D01*
X153503725Y-96719615D01*
X153505420Y-96650282D01*
X159624375Y-96650282D01*
X159629148Y-96658937D01*
X160274000Y-97303790D01*
X161278027Y-98307816D01*
X161290106Y-98313971D01*
X161306514Y-98311372D01*
X161331281Y-98299359D01*
X161392487Y-98310289D01*
X161418111Y-98331844D01*
X161419009Y-98330993D01*
X161560749Y-98480616D01*
X161728224Y-98600738D01*
X161915393Y-98687024D01*
X161920038Y-98688169D01*
X161920043Y-98688171D01*
X162110847Y-98735213D01*
X162110851Y-98735214D01*
X162115501Y-98736360D01*
X162120282Y-98736606D01*
X162120286Y-98736607D01*
X162316550Y-98746721D01*
X162316552Y-98746721D01*
X162321328Y-98746967D01*
X162326068Y-98746305D01*
X162326069Y-98746305D01*
X162384794Y-98738104D01*
X162525447Y-98718462D01*
X162529974Y-98716916D01*
X162529976Y-98716916D01*
X162715969Y-98653418D01*
X162715971Y-98653417D01*
X162720494Y-98651873D01*
X162899430Y-98549602D01*
X162903053Y-98546491D01*
X162903059Y-98546487D01*
X163052164Y-98418462D01*
X163055799Y-98415341D01*
X163164530Y-98278402D01*
X163180980Y-98257685D01*
X163180981Y-98257684D01*
X163183959Y-98253933D01*
X163186171Y-98249692D01*
X163186176Y-98249685D01*
X163187116Y-98247882D01*
X163187751Y-98247259D01*
X163188783Y-98245670D01*
X163189137Y-98245900D01*
X163231498Y-98204341D01*
X163292997Y-98195203D01*
X163348122Y-98223958D01*
X163361108Y-98240283D01*
X163408143Y-98313971D01*
X163419008Y-98330993D01*
X163560748Y-98480616D01*
X163728223Y-98600738D01*
X163915392Y-98687024D01*
X163920037Y-98688169D01*
X163920042Y-98688171D01*
X164110846Y-98735213D01*
X164110850Y-98735214D01*
X164115500Y-98736360D01*
X164120280Y-98736606D01*
X164120285Y-98736607D01*
X164140778Y-98737662D01*
X164149351Y-98738104D01*
X164207414Y-98760334D01*
X164215309Y-98767436D01*
X164819911Y-99372038D01*
X164827376Y-99381381D01*
X164827481Y-99381291D01*
X164832125Y-99386748D01*
X164835950Y-99392810D01*
X164841322Y-99397555D01*
X164841326Y-99397559D01*
X164874122Y-99426523D01*
X164878664Y-99430791D01*
X164892124Y-99444251D01*
X164894981Y-99446392D01*
X164902585Y-99452092D01*
X164908839Y-99457184D01*
X164939707Y-99484445D01*
X164939709Y-99484446D01*
X164945077Y-99489187D01*
X164951563Y-99492232D01*
X164951564Y-99492233D01*
X164954499Y-99493611D01*
X164972067Y-99504167D01*
X164974669Y-99506117D01*
X164974673Y-99506119D01*
X164980405Y-99510415D01*
X165025696Y-99527394D01*
X165033096Y-99530512D01*
X165076867Y-99551062D01*
X165087155Y-99552664D01*
X165106984Y-99557866D01*
X165116734Y-99561521D01*
X165140335Y-99563275D01*
X165164940Y-99565104D01*
X165172955Y-99566024D01*
X165188859Y-99568500D01*
X165206916Y-99568500D01*
X165214372Y-99568777D01*
X165254776Y-99571780D01*
X165254779Y-99571780D01*
X165261926Y-99572311D01*
X165269394Y-99570717D01*
X165290394Y-99568500D01*
X167445793Y-99568500D01*
X167457675Y-99569827D01*
X167457686Y-99569689D01*
X167464824Y-99570263D01*
X167471818Y-99571846D01*
X167522641Y-99568693D01*
X167528870Y-99568500D01*
X167547913Y-99568500D01*
X167551457Y-99567992D01*
X167551462Y-99567992D01*
X167560851Y-99566647D01*
X167568883Y-99565824D01*
X167593023Y-99564326D01*
X167609977Y-99563275D01*
X167609979Y-99563275D01*
X167617131Y-99562831D01*
X167626924Y-99559296D01*
X167646815Y-99554336D01*
X167657122Y-99552860D01*
X167701139Y-99532847D01*
X167708601Y-99529809D01*
X167747333Y-99515827D01*
X167747337Y-99515825D01*
X167754073Y-99513393D01*
X167762481Y-99507250D01*
X167780178Y-99496910D01*
X167783136Y-99495565D01*
X167783137Y-99495564D01*
X167789659Y-99492599D01*
X167826284Y-99461040D01*
X167832600Y-99456026D01*
X167845594Y-99446534D01*
X167858361Y-99433767D01*
X167863828Y-99428691D01*
X167894528Y-99402238D01*
X167899955Y-99397562D01*
X167904109Y-99391154D01*
X167917390Y-99374738D01*
X168333042Y-98959086D01*
X168342380Y-98951625D01*
X168342290Y-98951519D01*
X168347743Y-98946878D01*
X168353810Y-98943050D01*
X168387522Y-98904878D01*
X168391776Y-98900352D01*
X168397640Y-98894488D01*
X168409045Y-98885153D01*
X168410588Y-98884377D01*
X168460570Y-98841688D01*
X168534605Y-98778456D01*
X168534606Y-98778455D01*
X168539212Y-98774521D01*
X168637920Y-98637155D01*
X168701012Y-98480209D01*
X168706755Y-98439861D01*
X168724381Y-98316010D01*
X168724846Y-98312743D01*
X168724926Y-98305090D01*
X168724966Y-98301295D01*
X168724966Y-98301289D01*
X168725000Y-98298000D01*
X168704679Y-98130072D01*
X168644887Y-97971840D01*
X168549078Y-97832436D01*
X168480541Y-97771372D01*
X168427311Y-97723946D01*
X168427310Y-97723945D01*
X168422782Y-97719911D01*
X168273291Y-97640759D01*
X168217340Y-97626705D01*
X168115121Y-97601029D01*
X168115117Y-97601029D01*
X168109235Y-97599551D01*
X168103170Y-97599519D01*
X168103168Y-97599519D01*
X168031235Y-97599143D01*
X167940084Y-97598666D01*
X167934194Y-97600080D01*
X167781497Y-97636738D01*
X167781493Y-97636739D01*
X167775605Y-97638153D01*
X167625293Y-97715735D01*
X167548894Y-97782383D01*
X167519861Y-97807710D01*
X167462672Y-97832104D01*
X167402067Y-97818224D01*
X167361195Y-97771372D01*
X167353635Y-97721823D01*
X167358739Y-97671131D01*
X167358986Y-97668681D01*
X167359001Y-97663000D01*
X167356631Y-97638153D01*
X167339880Y-97462594D01*
X167339426Y-97457831D01*
X167281408Y-97260066D01*
X167248052Y-97195300D01*
X167189236Y-97081102D01*
X167189234Y-97081099D01*
X167187040Y-97076839D01*
X167151393Y-97031458D01*
X167129975Y-96973091D01*
X167146955Y-96913280D01*
X167195849Y-96874874D01*
X167234454Y-96868794D01*
X167332797Y-96872658D01*
X167341968Y-96872178D01*
X167552258Y-96841687D01*
X167561187Y-96839543D01*
X167762398Y-96771240D01*
X167770783Y-96767507D01*
X167916183Y-96686080D01*
X167924516Y-96677064D01*
X167919534Y-96667743D01*
X167862473Y-96610682D01*
X173265944Y-96610682D01*
X173266182Y-96614807D01*
X173279610Y-96847681D01*
X173279967Y-96853881D01*
X173333522Y-97091524D01*
X173425171Y-97317229D01*
X173427322Y-97320739D01*
X173427325Y-97320745D01*
X173518046Y-97468787D01*
X173552453Y-97524935D01*
X173555154Y-97528053D01*
X173679092Y-97671131D01*
X173711950Y-97709064D01*
X173715118Y-97711694D01*
X173715123Y-97711699D01*
X173860153Y-97832104D01*
X173899379Y-97864670D01*
X173980976Y-97912351D01*
X174072281Y-97965705D01*
X174109705Y-97987574D01*
X174337280Y-98074477D01*
X174575993Y-98123043D01*
X174819432Y-98131970D01*
X174935291Y-98117128D01*
X175056973Y-98101540D01*
X175056977Y-98101539D01*
X175061061Y-98101016D01*
X175294389Y-98031014D01*
X175513152Y-97923844D01*
X175583390Y-97873744D01*
X175708113Y-97784780D01*
X175708116Y-97784778D01*
X175711473Y-97782383D01*
X175884027Y-97610430D01*
X176026179Y-97412604D01*
X176134113Y-97194217D01*
X176135311Y-97190272D01*
X176135314Y-97190266D01*
X176203728Y-96965087D01*
X176204929Y-96961134D01*
X176236725Y-96719615D01*
X176238500Y-96647000D01*
X176218540Y-96404216D01*
X176205612Y-96352745D01*
X176160198Y-96171951D01*
X176159194Y-96167952D01*
X176062058Y-95944553D01*
X175944749Y-95763221D01*
X175931983Y-95743487D01*
X175931980Y-95743483D01*
X175929739Y-95740019D01*
X175926965Y-95736970D01*
X175926960Y-95736964D01*
X175768566Y-95562893D01*
X175765791Y-95559843D01*
X175574617Y-95408863D01*
X175468712Y-95350400D01*
X175364964Y-95293127D01*
X175364959Y-95293125D01*
X175361351Y-95291133D01*
X175131720Y-95209817D01*
X174891892Y-95167097D01*
X174887763Y-95167047D01*
X174887757Y-95167046D01*
X174771576Y-95165627D01*
X174648307Y-95164121D01*
X174644225Y-95164746D01*
X174644220Y-95164746D01*
X174457562Y-95193309D01*
X174407507Y-95200969D01*
X174175958Y-95276650D01*
X174172290Y-95278559D01*
X174172291Y-95278559D01*
X174016723Y-95359543D01*
X173959879Y-95389134D01*
X173956585Y-95391607D01*
X173956579Y-95391611D01*
X173768377Y-95532918D01*
X173765074Y-95535398D01*
X173762226Y-95538378D01*
X173762224Y-95538380D01*
X173599623Y-95708532D01*
X173599620Y-95708536D01*
X173596773Y-95711515D01*
X173594448Y-95714923D01*
X173594445Y-95714927D01*
X173561501Y-95763221D01*
X173459496Y-95912755D01*
X173457758Y-95916499D01*
X173457757Y-95916501D01*
X173441709Y-95951074D01*
X173356930Y-96133714D01*
X173291830Y-96368458D01*
X173291391Y-96372564D01*
X173291391Y-96372565D01*
X173268322Y-96588433D01*
X173265944Y-96610682D01*
X167862473Y-96610682D01*
X166915602Y-95663810D01*
X167638324Y-95663810D01*
X167639134Y-95668922D01*
X168278028Y-96307815D01*
X168288968Y-96313389D01*
X168296587Y-96306064D01*
X168378509Y-96159781D01*
X168382242Y-96151396D01*
X168450545Y-95950185D01*
X168452689Y-95941256D01*
X168483416Y-95729336D01*
X168483918Y-95723445D01*
X168485424Y-95665955D01*
X168485230Y-95660050D01*
X168465636Y-95446809D01*
X168463963Y-95437786D01*
X168406285Y-95233272D01*
X168402994Y-95224699D01*
X168309016Y-95034132D01*
X168304214Y-95026295D01*
X168299084Y-95019425D01*
X168288017Y-95011602D01*
X168286548Y-95011622D01*
X168281369Y-95014842D01*
X167644479Y-95651731D01*
X167638324Y-95663810D01*
X166915602Y-95663810D01*
X166914791Y-95662999D01*
X166268189Y-95016397D01*
X166256110Y-95010242D01*
X166244700Y-95012050D01*
X166213366Y-95027757D01*
X166152023Y-95017628D01*
X166119170Y-94990437D01*
X166062684Y-94918527D01*
X166062681Y-94918524D01*
X166059726Y-94914762D01*
X165975483Y-94841659D01*
X165907682Y-94782824D01*
X165907679Y-94782822D01*
X165904063Y-94779684D01*
X165899921Y-94777288D01*
X165899917Y-94777285D01*
X165729811Y-94678876D01*
X165729807Y-94678874D01*
X165725665Y-94676478D01*
X165530969Y-94608868D01*
X165377102Y-94586558D01*
X165331741Y-94579981D01*
X165331740Y-94579981D01*
X165327002Y-94579294D01*
X165207611Y-94584820D01*
X165125911Y-94588601D01*
X165125907Y-94588602D01*
X165121122Y-94588823D01*
X165116470Y-94589944D01*
X165116464Y-94589945D01*
X164925412Y-94635989D01*
X164925406Y-94635991D01*
X164920759Y-94637111D01*
X164733141Y-94722416D01*
X164565039Y-94841659D01*
X164422518Y-94990539D01*
X164422116Y-94991162D01*
X164371424Y-95024969D01*
X164309300Y-95022473D01*
X164288645Y-95011594D01*
X164286549Y-95011622D01*
X164281370Y-95014842D01*
X163345137Y-95951074D01*
X163289739Y-95979300D01*
X163228331Y-95969574D01*
X163202867Y-95951074D01*
X162268190Y-95016397D01*
X162256111Y-95010242D01*
X162244701Y-95012050D01*
X162213367Y-95027757D01*
X162152024Y-95017628D01*
X162119171Y-94990437D01*
X162062685Y-94918527D01*
X162062682Y-94918524D01*
X162059727Y-94914762D01*
X161975484Y-94841659D01*
X161907683Y-94782824D01*
X161907680Y-94782822D01*
X161904064Y-94779684D01*
X161899922Y-94777288D01*
X161899918Y-94777285D01*
X161729812Y-94678876D01*
X161729808Y-94678874D01*
X161725666Y-94676478D01*
X161530970Y-94608868D01*
X161377103Y-94586558D01*
X161331742Y-94579981D01*
X161331741Y-94579981D01*
X161327003Y-94579294D01*
X161207612Y-94584820D01*
X161125912Y-94588601D01*
X161125908Y-94588602D01*
X161121123Y-94588823D01*
X161116471Y-94589944D01*
X161116465Y-94589945D01*
X160925413Y-94635989D01*
X160925407Y-94635991D01*
X160920760Y-94637111D01*
X160733142Y-94722416D01*
X160565040Y-94841659D01*
X160422519Y-94990539D01*
X160310721Y-95163682D01*
X160308932Y-95168121D01*
X160308931Y-95168123D01*
X160256644Y-95297866D01*
X160233682Y-95354842D01*
X160194179Y-95557122D01*
X160194166Y-95561905D01*
X160194166Y-95561910D01*
X160193932Y-95651731D01*
X160193640Y-95763221D01*
X160194532Y-95767918D01*
X160194532Y-95767921D01*
X160229136Y-95950185D01*
X160232082Y-95965704D01*
X160308120Y-96157265D01*
X160310693Y-96161296D01*
X160310695Y-96161300D01*
X160400691Y-96302293D01*
X160416311Y-96362473D01*
X160393574Y-96420341D01*
X160341166Y-96453793D01*
X160314577Y-96457010D01*
X160183562Y-96455295D01*
X160174401Y-96456016D01*
X159964986Y-96492000D01*
X159956114Y-96494377D01*
X159756767Y-96567920D01*
X159748468Y-96571879D01*
X159632766Y-96640714D01*
X159624375Y-96650282D01*
X153505420Y-96650282D01*
X153505500Y-96647000D01*
X153485540Y-96404216D01*
X153472612Y-96352745D01*
X153427198Y-96171951D01*
X153426194Y-96167952D01*
X153329058Y-95944553D01*
X153211749Y-95763221D01*
X153198983Y-95743487D01*
X153198980Y-95743483D01*
X153196739Y-95740019D01*
X153193965Y-95736970D01*
X153193960Y-95736964D01*
X153035566Y-95562893D01*
X153032791Y-95559843D01*
X152841617Y-95408863D01*
X152735712Y-95350400D01*
X152631964Y-95293127D01*
X152631959Y-95293125D01*
X152628351Y-95291133D01*
X152398720Y-95209817D01*
X152158892Y-95167097D01*
X152154763Y-95167047D01*
X152154757Y-95167046D01*
X152038576Y-95165627D01*
X151915307Y-95164121D01*
X151911225Y-95164746D01*
X151911220Y-95164746D01*
X151724562Y-95193309D01*
X151674507Y-95200969D01*
X151442958Y-95276650D01*
X151439290Y-95278559D01*
X151439291Y-95278559D01*
X151283723Y-95359543D01*
X151226879Y-95389134D01*
X151223585Y-95391607D01*
X151223579Y-95391611D01*
X151035377Y-95532918D01*
X151032074Y-95535398D01*
X151029226Y-95538378D01*
X151029224Y-95538380D01*
X150866623Y-95708532D01*
X150866620Y-95708536D01*
X150863773Y-95711515D01*
X150861448Y-95714923D01*
X150861445Y-95714927D01*
X150828501Y-95763221D01*
X150726496Y-95912755D01*
X150724758Y-95916499D01*
X150724757Y-95916501D01*
X150708709Y-95951074D01*
X150623930Y-96133714D01*
X150558830Y-96368458D01*
X150558391Y-96372564D01*
X150558391Y-96372565D01*
X150535322Y-96588433D01*
X150532944Y-96610682D01*
X149733000Y-96610682D01*
X149733000Y-94461600D01*
X149752213Y-94402469D01*
X149802513Y-94365924D01*
X149833600Y-94361000D01*
X162754307Y-94361000D01*
X162813438Y-94380213D01*
G37*
G04 #@! TD.AperFunction*
M02*
