G04 #@! TF.GenerationSoftware,KiCad,Pcbnew,(5.99.0-9812-gfee3c41c40)*
G04 #@! TF.CreationDate,2021-03-23T13:38:30-07:00*
G04 #@! TF.ProjectId,homebreakout,686f6d65-6272-4656-916b-6f75742e6b69,rev?*
G04 #@! TF.SameCoordinates,Original*
G04 #@! TF.FileFunction,Legend,Top*
G04 #@! TF.FilePolarity,Positive*
%FSLAX46Y46*%
G04 Gerber Fmt 4.6, Leading zero omitted, Abs format (unit mm)*
G04 Created by KiCad (PCBNEW (5.99.0-9812-gfee3c41c40)) date 2021-03-23 13:38:30*
%MOMM*%
%LPD*%
G01*
G04 APERTURE LIST*
%ADD10C,0.200000*%
%ADD11C,0.152400*%
%ADD12C,0.120000*%
G04 APERTURE END LIST*
D10*
X147320000Y-63881000D02*
X148844000Y-66548000D01*
D11*
X145849219Y-63613695D02*
X145849219Y-62800895D01*
X146158857Y-62800895D01*
X146236266Y-62839600D01*
X146274971Y-62878304D01*
X146313676Y-62955714D01*
X146313676Y-63071828D01*
X146274971Y-63149238D01*
X146236266Y-63187942D01*
X146158857Y-63226647D01*
X145849219Y-63226647D01*
X146662019Y-63613695D02*
X146662019Y-63071828D01*
X146662019Y-62800895D02*
X146623314Y-62839600D01*
X146662019Y-62878304D01*
X146700723Y-62839600D01*
X146662019Y-62800895D01*
X146662019Y-62878304D01*
X147049066Y-63071828D02*
X147049066Y-63613695D01*
X147049066Y-63149238D02*
X147087771Y-63110533D01*
X147165180Y-63071828D01*
X147281295Y-63071828D01*
X147358704Y-63110533D01*
X147397409Y-63187942D01*
X147397409Y-63613695D01*
X148829485Y-63613695D02*
X148365028Y-63613695D01*
X148597257Y-63613695D02*
X148597257Y-62800895D01*
X148519847Y-62917009D01*
X148442438Y-62994419D01*
X148365028Y-63033123D01*
X146342583Y-50151695D02*
X146342583Y-49338895D01*
X146342583Y-49725942D02*
X146807040Y-49725942D01*
X146807040Y-50151695D02*
X146807040Y-49338895D01*
X147310202Y-50151695D02*
X147232793Y-50112990D01*
X147194088Y-50074285D01*
X147155383Y-49996876D01*
X147155383Y-49764647D01*
X147194088Y-49687238D01*
X147232793Y-49648533D01*
X147310202Y-49609828D01*
X147426317Y-49609828D01*
X147503726Y-49648533D01*
X147542431Y-49687238D01*
X147581136Y-49764647D01*
X147581136Y-49996876D01*
X147542431Y-50074285D01*
X147503726Y-50112990D01*
X147426317Y-50151695D01*
X147310202Y-50151695D01*
X147929479Y-50151695D02*
X147929479Y-49609828D01*
X147929479Y-49687238D02*
X147968183Y-49648533D01*
X148045593Y-49609828D01*
X148161707Y-49609828D01*
X148239117Y-49648533D01*
X148277821Y-49725942D01*
X148277821Y-50151695D01*
X148277821Y-49725942D02*
X148316526Y-49648533D01*
X148393936Y-49609828D01*
X148510050Y-49609828D01*
X148587460Y-49648533D01*
X148626164Y-49725942D01*
X148626164Y-50151695D01*
X149322850Y-50112990D02*
X149245440Y-50151695D01*
X149090621Y-50151695D01*
X149013212Y-50112990D01*
X148974507Y-50035580D01*
X148974507Y-49725942D01*
X149013212Y-49648533D01*
X149090621Y-49609828D01*
X149245440Y-49609828D01*
X149322850Y-49648533D01*
X149361555Y-49725942D01*
X149361555Y-49803352D01*
X148974507Y-49880761D01*
X149709898Y-49609828D02*
X149709898Y-50422628D01*
X149709898Y-49648533D02*
X149787307Y-49609828D01*
X149942126Y-49609828D01*
X150019536Y-49648533D01*
X150058240Y-49687238D01*
X150096945Y-49764647D01*
X150096945Y-49996876D01*
X150058240Y-50074285D01*
X150019536Y-50112990D01*
X149942126Y-50151695D01*
X149787307Y-50151695D01*
X149709898Y-50112990D01*
X150367879Y-49609828D02*
X150522698Y-50151695D01*
X150677517Y-49764647D01*
X150832336Y-50151695D01*
X150987155Y-49609828D01*
X151296793Y-49609828D02*
X151296793Y-50151695D01*
X151296793Y-49687238D02*
X151335498Y-49648533D01*
X151412907Y-49609828D01*
X151529021Y-49609828D01*
X151606431Y-49648533D01*
X151645136Y-49725942D01*
X151645136Y-50151695D01*
X152651460Y-50151695D02*
X152651460Y-49338895D01*
X152961098Y-49338895D01*
X153038507Y-49377600D01*
X153077212Y-49416304D01*
X153115917Y-49493714D01*
X153115917Y-49609828D01*
X153077212Y-49687238D01*
X153038507Y-49725942D01*
X152961098Y-49764647D01*
X152651460Y-49764647D01*
X153580374Y-50151695D02*
X153502964Y-50112990D01*
X153464260Y-50074285D01*
X153425555Y-49996876D01*
X153425555Y-49764647D01*
X153464260Y-49687238D01*
X153502964Y-49648533D01*
X153580374Y-49609828D01*
X153696488Y-49609828D01*
X153773898Y-49648533D01*
X153812602Y-49687238D01*
X153851307Y-49764647D01*
X153851307Y-49996876D01*
X153812602Y-50074285D01*
X153773898Y-50112990D01*
X153696488Y-50151695D01*
X153580374Y-50151695D01*
X154547993Y-49609828D02*
X154547993Y-50267809D01*
X154509288Y-50345219D01*
X154470583Y-50383923D01*
X154393174Y-50422628D01*
X154277060Y-50422628D01*
X154199650Y-50383923D01*
X154547993Y-50112990D02*
X154470583Y-50151695D01*
X154315764Y-50151695D01*
X154238355Y-50112990D01*
X154199650Y-50074285D01*
X154160945Y-49996876D01*
X154160945Y-49764647D01*
X154199650Y-49687238D01*
X154238355Y-49648533D01*
X154315764Y-49609828D01*
X154470583Y-49609828D01*
X154547993Y-49648533D01*
X155051155Y-50151695D02*
X154973745Y-50112990D01*
X154935040Y-50074285D01*
X154896336Y-49996876D01*
X154896336Y-49764647D01*
X154935040Y-49687238D01*
X154973745Y-49648533D01*
X155051155Y-49609828D01*
X155167269Y-49609828D01*
X155244679Y-49648533D01*
X155283383Y-49687238D01*
X155322088Y-49764647D01*
X155322088Y-49996876D01*
X155283383Y-50074285D01*
X155244679Y-50112990D01*
X155167269Y-50151695D01*
X155051155Y-50151695D01*
X156251002Y-49919466D02*
X156638050Y-49919466D01*
X156173593Y-50151695D02*
X156444526Y-49338895D01*
X156715460Y-50151695D01*
X157334736Y-50151695D02*
X157334736Y-49338895D01*
X157334736Y-50112990D02*
X157257326Y-50151695D01*
X157102507Y-50151695D01*
X157025098Y-50112990D01*
X156986393Y-50074285D01*
X156947688Y-49996876D01*
X156947688Y-49764647D01*
X156986393Y-49687238D01*
X157025098Y-49648533D01*
X157102507Y-49609828D01*
X157257326Y-49609828D01*
X157334736Y-49648533D01*
X158070126Y-50151695D02*
X158070126Y-49725942D01*
X158031421Y-49648533D01*
X157954012Y-49609828D01*
X157799193Y-49609828D01*
X157721783Y-49648533D01*
X158070126Y-50112990D02*
X157992717Y-50151695D01*
X157799193Y-50151695D01*
X157721783Y-50112990D01*
X157683079Y-50035580D01*
X157683079Y-49958171D01*
X157721783Y-49880761D01*
X157799193Y-49842057D01*
X157992717Y-49842057D01*
X158070126Y-49803352D01*
X158457174Y-49609828D02*
X158457174Y-50422628D01*
X158457174Y-49648533D02*
X158534583Y-49609828D01*
X158689402Y-49609828D01*
X158766812Y-49648533D01*
X158805517Y-49687238D01*
X158844221Y-49764647D01*
X158844221Y-49996876D01*
X158805517Y-50074285D01*
X158766812Y-50112990D01*
X158689402Y-50151695D01*
X158534583Y-50151695D01*
X158457174Y-50112990D01*
X159076450Y-49609828D02*
X159386088Y-49609828D01*
X159192564Y-49338895D02*
X159192564Y-50035580D01*
X159231269Y-50112990D01*
X159308679Y-50151695D01*
X159386088Y-50151695D01*
X159966660Y-50112990D02*
X159889250Y-50151695D01*
X159734431Y-50151695D01*
X159657021Y-50112990D01*
X159618317Y-50035580D01*
X159618317Y-49725942D01*
X159657021Y-49648533D01*
X159734431Y-49609828D01*
X159889250Y-49609828D01*
X159966660Y-49648533D01*
X160005364Y-49725942D01*
X160005364Y-49803352D01*
X159618317Y-49880761D01*
X160353707Y-50151695D02*
X160353707Y-49609828D01*
X160353707Y-49764647D02*
X160392412Y-49687238D01*
X160431117Y-49648533D01*
X160508526Y-49609828D01*
X160585936Y-49609828D01*
X161360031Y-49338895D02*
X161630964Y-50151695D01*
X161901898Y-49338895D01*
X162598583Y-50151695D02*
X162134126Y-50151695D01*
X162366355Y-50151695D02*
X162366355Y-49338895D01*
X162288945Y-49455009D01*
X162211536Y-49532419D01*
X162134126Y-49571123D01*
X162946926Y-50074285D02*
X162985631Y-50112990D01*
X162946926Y-50151695D01*
X162908221Y-50112990D01*
X162946926Y-50074285D01*
X162946926Y-50151695D01*
X163488793Y-49338895D02*
X163566202Y-49338895D01*
X163643612Y-49377600D01*
X163682317Y-49416304D01*
X163721021Y-49493714D01*
X163759726Y-49648533D01*
X163759726Y-49842057D01*
X163721021Y-49996876D01*
X163682317Y-50074285D01*
X163643612Y-50112990D01*
X163566202Y-50151695D01*
X163488793Y-50151695D01*
X163411383Y-50112990D01*
X163372679Y-50074285D01*
X163333974Y-49996876D01*
X163295269Y-49842057D01*
X163295269Y-49648533D01*
X163333974Y-49493714D01*
X163372679Y-49416304D01*
X163411383Y-49377600D01*
X163488793Y-49338895D01*
X160586301Y-64160400D02*
X146133701Y-64160400D01*
X146133701Y-64160400D02*
X146133701Y-68427600D01*
X146133701Y-68427600D02*
X160586301Y-68427600D01*
X160586301Y-68427600D02*
X160586301Y-64160400D01*
D12*
X161700000Y-56550000D02*
G75*
G03*
X161700000Y-56550000I-1000000J0D01*
G01*
X157300000Y-56550000D02*
G75*
G03*
X157300000Y-56550000I-1000000J0D01*
G01*
X159500000Y-56550000D02*
G75*
G03*
X159500000Y-56550000I-1000000J0D01*
G01*
X155100000Y-56550000D02*
G75*
G03*
X155100000Y-56550000I-1000000J0D01*
G01*
X152900000Y-56550000D02*
G75*
G03*
X152900000Y-56550000I-1000000J0D01*
G01*
X150700000Y-56550000D02*
G75*
G03*
X150700000Y-56550000I-1000000J0D01*
G01*
X148500000Y-56550000D02*
G75*
G03*
X148500000Y-56550000I-1000000J0D01*
G01*
X155100000Y-54050000D02*
G75*
G03*
X155100000Y-54050000I-1000000J0D01*
G01*
M02*
