G04 #@! TF.GenerationSoftware,KiCad,Pcbnew,(5.99.0-9812-gfee3c41c40)*
G04 #@! TF.CreationDate,2021-03-23T13:38:30-07:00*
G04 #@! TF.ProjectId,homebreakout,686f6d65-6272-4656-916b-6f75742e6b69,rev?*
G04 #@! TF.SameCoordinates,Original*
G04 #@! TF.FileFunction,Copper,L2,Bot*
G04 #@! TF.FilePolarity,Positive*
%FSLAX46Y46*%
G04 Gerber Fmt 4.6, Leading zero omitted, Abs format (unit mm)*
G04 Created by KiCad (PCBNEW (5.99.0-9812-gfee3c41c40)) date 2021-03-23 13:38:30*
%MOMM*%
%LPD*%
G01*
G04 APERTURE LIST*
G04 #@! TA.AperFunction,ComponentPad*
%ADD10C,1.397000*%
G04 #@! TD*
G04 #@! TA.AperFunction,ComponentPad*
%ADD11C,1.800000*%
G04 #@! TD*
G04 APERTURE END LIST*
D10*
X149860000Y-67310000D03*
X150860001Y-65309999D03*
X151860001Y-67310000D03*
X152860002Y-65309999D03*
X153860000Y-67310000D03*
X154860000Y-65309999D03*
X155860001Y-67310000D03*
X156860001Y-65309999D03*
D11*
X160700000Y-56550000D03*
X156300000Y-56550000D03*
X158500000Y-56550000D03*
X154100000Y-56550000D03*
X151900000Y-56550000D03*
X149700000Y-56550000D03*
X147500000Y-56550000D03*
X154100000Y-54050000D03*
G04 #@! TA.AperFunction,Conductor*
G36*
X172551099Y-49247037D02*
G01*
X172597624Y-49300665D01*
X172607770Y-49370933D01*
X172578316Y-49435531D01*
X172512456Y-49475595D01*
X172476401Y-49484251D01*
X172471830Y-49486144D01*
X172471828Y-49486145D01*
X172247060Y-49579247D01*
X172247056Y-49579249D01*
X172242486Y-49581142D01*
X172026608Y-49713432D01*
X172022848Y-49716643D01*
X172022843Y-49716647D01*
X171852705Y-49861959D01*
X171834083Y-49877864D01*
X171830870Y-49881626D01*
X171672866Y-50066624D01*
X171672862Y-50066629D01*
X171669651Y-50070389D01*
X171537361Y-50286267D01*
X171503580Y-50367822D01*
X171444016Y-50511622D01*
X171440470Y-50520182D01*
X171439315Y-50524994D01*
X171383097Y-50759160D01*
X171381365Y-50766374D01*
X171361500Y-51018781D01*
X171381365Y-51271188D01*
X171382519Y-51275995D01*
X171382520Y-51276001D01*
X171407867Y-51381579D01*
X171440470Y-51517380D01*
X171442363Y-51521951D01*
X171442364Y-51521953D01*
X171532943Y-51740628D01*
X171537361Y-51751295D01*
X171669651Y-51967173D01*
X171672862Y-51970933D01*
X171672866Y-51970938D01*
X171769938Y-52084594D01*
X171834083Y-52159698D01*
X171837845Y-52162911D01*
X172022843Y-52320915D01*
X172022848Y-52320919D01*
X172026608Y-52324130D01*
X172242486Y-52456420D01*
X172247056Y-52458313D01*
X172247060Y-52458315D01*
X172471828Y-52551417D01*
X172476401Y-52553311D01*
X172561106Y-52573647D01*
X172717780Y-52611261D01*
X172717786Y-52611262D01*
X172722593Y-52612416D01*
X172975000Y-52632281D01*
X173227407Y-52612416D01*
X173232214Y-52611262D01*
X173232220Y-52611261D01*
X173388894Y-52573647D01*
X173473599Y-52553311D01*
X173478172Y-52551417D01*
X173702940Y-52458315D01*
X173702944Y-52458313D01*
X173707514Y-52456420D01*
X173923392Y-52324130D01*
X173927152Y-52320919D01*
X173927157Y-52320915D01*
X174112155Y-52162911D01*
X174115917Y-52159698D01*
X174180062Y-52084594D01*
X174277134Y-51970938D01*
X174277138Y-51970933D01*
X174280349Y-51967173D01*
X174369900Y-51821039D01*
X174422547Y-51773409D01*
X174492588Y-51761802D01*
X174557786Y-51789905D01*
X174597440Y-51848795D01*
X174599697Y-51916921D01*
X174463727Y-52470670D01*
X170956332Y-66754787D01*
X170920663Y-66816173D01*
X170857468Y-66848530D01*
X170786812Y-66841585D01*
X170731128Y-66797542D01*
X170708355Y-66734627D01*
X170702690Y-66662648D01*
X170693635Y-66547593D01*
X170686544Y-66518054D01*
X170635685Y-66306213D01*
X170634530Y-66301401D01*
X170628430Y-66286675D01*
X170539534Y-66072060D01*
X170539532Y-66072056D01*
X170537639Y-66067486D01*
X170405349Y-65851608D01*
X170402138Y-65847848D01*
X170402134Y-65847843D01*
X170244130Y-65662845D01*
X170240917Y-65659083D01*
X170222295Y-65643178D01*
X170052157Y-65497866D01*
X170052152Y-65497862D01*
X170048392Y-65494651D01*
X169832514Y-65362361D01*
X169827944Y-65360468D01*
X169827940Y-65360466D01*
X169603172Y-65267364D01*
X169603170Y-65267363D01*
X169598599Y-65265470D01*
X169513894Y-65245134D01*
X169357220Y-65207520D01*
X169357214Y-65207519D01*
X169352407Y-65206365D01*
X169100000Y-65186500D01*
X168847593Y-65206365D01*
X168842786Y-65207519D01*
X168842780Y-65207520D01*
X168686106Y-65245134D01*
X168601401Y-65265470D01*
X168596830Y-65267363D01*
X168596828Y-65267364D01*
X168372060Y-65360466D01*
X168372056Y-65360468D01*
X168367486Y-65362361D01*
X168151608Y-65494651D01*
X168147848Y-65497862D01*
X168147843Y-65497866D01*
X167977705Y-65643178D01*
X167959083Y-65659083D01*
X167955870Y-65662845D01*
X167797866Y-65847843D01*
X167797862Y-65847848D01*
X167794651Y-65851608D01*
X167662361Y-66067486D01*
X167660468Y-66072056D01*
X167660466Y-66072060D01*
X167571570Y-66286675D01*
X167565470Y-66301401D01*
X167564315Y-66306213D01*
X167513457Y-66518054D01*
X167506365Y-66547593D01*
X167486500Y-66800000D01*
X167506365Y-67052407D01*
X167507519Y-67057214D01*
X167507520Y-67057220D01*
X167515379Y-67089954D01*
X167565470Y-67298599D01*
X167567363Y-67303170D01*
X167567364Y-67303172D01*
X167651015Y-67505122D01*
X167662361Y-67532514D01*
X167794651Y-67748392D01*
X167797862Y-67752152D01*
X167797866Y-67752157D01*
X167908852Y-67882104D01*
X167959083Y-67940917D01*
X167962845Y-67944130D01*
X168147843Y-68102134D01*
X168147848Y-68102138D01*
X168151608Y-68105349D01*
X168367486Y-68237639D01*
X168372056Y-68239532D01*
X168372060Y-68239534D01*
X168577459Y-68324613D01*
X168601401Y-68334530D01*
X168606219Y-68335687D01*
X168606223Y-68335688D01*
X168615655Y-68337953D01*
X168677224Y-68373305D01*
X168709906Y-68436332D01*
X168703325Y-68507023D01*
X168659570Y-68562934D01*
X168586264Y-68586471D01*
X156530046Y-68588731D01*
X156461921Y-68568742D01*
X156415418Y-68515095D01*
X156405301Y-68444823D01*
X156434782Y-68380236D01*
X156465316Y-68354615D01*
X156465393Y-68354569D01*
X156572397Y-68290529D01*
X156734774Y-68148878D01*
X156767935Y-68107487D01*
X156865996Y-67985088D01*
X156865999Y-67985083D01*
X156869502Y-67980711D01*
X156972320Y-67791343D01*
X157039979Y-67586761D01*
X157060282Y-67444101D01*
X157069829Y-67377025D01*
X157069830Y-67377017D01*
X157070340Y-67373431D01*
X157072001Y-67310000D01*
X157070984Y-67298599D01*
X157053345Y-67100968D01*
X157052846Y-67095373D01*
X156995987Y-66887531D01*
X156903220Y-66693042D01*
X156904241Y-66692555D01*
X156888199Y-66629328D01*
X156910715Y-66561997D01*
X156966060Y-66517528D01*
X156996031Y-66509309D01*
X157137100Y-66488854D01*
X157148294Y-66486167D01*
X157347298Y-66418614D01*
X157357795Y-66413940D01*
X157500281Y-66334145D01*
X157510144Y-66324068D01*
X157507189Y-66316398D01*
X156501923Y-65311131D01*
X157224409Y-65311131D01*
X157224540Y-65312965D01*
X157228791Y-65319579D01*
X157862488Y-65953275D01*
X157874863Y-65960032D01*
X157881443Y-65955106D01*
X157963942Y-65807793D01*
X157968616Y-65797296D01*
X158036169Y-65598292D01*
X158038857Y-65587096D01*
X158069308Y-65377078D01*
X158069938Y-65369695D01*
X158071404Y-65313703D01*
X158071161Y-65306304D01*
X158051743Y-65094978D01*
X158049645Y-65083657D01*
X157992603Y-64881400D01*
X157988478Y-64870653D01*
X157895533Y-64682178D01*
X157889515Y-64672358D01*
X157886392Y-64668176D01*
X157875132Y-64659726D01*
X157862715Y-64666496D01*
X157232022Y-65297188D01*
X157224409Y-65311131D01*
X156501923Y-65311131D01*
X156500791Y-65309999D01*
X155936210Y-64745419D01*
X155911579Y-64710569D01*
X155905633Y-64698103D01*
X155903219Y-64693041D01*
X155777478Y-64518053D01*
X155622736Y-64368098D01*
X155516827Y-64296930D01*
X156211045Y-64296930D01*
X156214531Y-64305318D01*
X156847190Y-64937978D01*
X156861133Y-64945591D01*
X156862967Y-64945460D01*
X156869581Y-64941209D01*
X157501579Y-64309210D01*
X157508336Y-64296835D01*
X157502306Y-64288779D01*
X157414893Y-64233626D01*
X157404649Y-64228406D01*
X157209454Y-64150531D01*
X157198416Y-64147261D01*
X156992304Y-64106263D01*
X156980858Y-64105060D01*
X156770730Y-64102310D01*
X156759250Y-64103213D01*
X156552139Y-64138801D01*
X156541019Y-64141781D01*
X156343853Y-64214519D01*
X156333475Y-64219469D01*
X156220643Y-64286597D01*
X156211045Y-64296930D01*
X155516827Y-64296930D01*
X155443885Y-64247915D01*
X155246579Y-64161304D01*
X155241128Y-64159995D01*
X155241124Y-64159994D01*
X155042510Y-64112311D01*
X155042509Y-64112311D01*
X155037053Y-64111001D01*
X154953768Y-64106199D01*
X154827537Y-64098920D01*
X154827534Y-64098920D01*
X154821930Y-64098597D01*
X154608011Y-64124484D01*
X154402057Y-64187844D01*
X154397077Y-64190414D01*
X154397073Y-64190416D01*
X154313356Y-64233626D01*
X154210578Y-64286674D01*
X154206130Y-64290087D01*
X154104463Y-64368098D01*
X154039626Y-64417849D01*
X153894606Y-64577225D01*
X153891629Y-64581971D01*
X153891625Y-64581976D01*
X153805598Y-64719116D01*
X153787956Y-64741256D01*
X152949097Y-65580114D01*
X152886785Y-65614139D01*
X152815969Y-65609074D01*
X152770907Y-65580114D01*
X151936210Y-64745418D01*
X151911579Y-64710566D01*
X151905634Y-64698103D01*
X151903220Y-64693041D01*
X151777479Y-64518053D01*
X151622737Y-64368098D01*
X151516828Y-64296930D01*
X152211046Y-64296930D01*
X152214532Y-64305318D01*
X152847191Y-64937978D01*
X152861134Y-64945591D01*
X152862968Y-64945460D01*
X152869582Y-64941209D01*
X153501580Y-64309210D01*
X153508337Y-64296835D01*
X153502307Y-64288779D01*
X153414894Y-64233626D01*
X153404650Y-64228406D01*
X153209455Y-64150531D01*
X153198417Y-64147261D01*
X152992305Y-64106263D01*
X152980859Y-64105060D01*
X152770731Y-64102310D01*
X152759251Y-64103213D01*
X152552140Y-64138801D01*
X152541020Y-64141781D01*
X152343854Y-64214519D01*
X152333476Y-64219469D01*
X152220644Y-64286597D01*
X152211046Y-64296930D01*
X151516828Y-64296930D01*
X151443886Y-64247915D01*
X151246580Y-64161304D01*
X151241129Y-64159995D01*
X151241125Y-64159994D01*
X151042511Y-64112311D01*
X151042510Y-64112311D01*
X151037054Y-64111001D01*
X150953769Y-64106199D01*
X150827538Y-64098920D01*
X150827535Y-64098920D01*
X150821931Y-64098597D01*
X150608012Y-64124484D01*
X150402058Y-64187844D01*
X150397078Y-64190414D01*
X150397074Y-64190416D01*
X150313357Y-64233626D01*
X150210579Y-64286674D01*
X150206131Y-64290087D01*
X150104464Y-64368098D01*
X150039627Y-64417849D01*
X149894607Y-64577225D01*
X149891626Y-64581976D01*
X149891626Y-64581977D01*
X149789100Y-64745418D01*
X149780101Y-64759763D01*
X149699730Y-64959692D01*
X149656033Y-65170695D01*
X149650393Y-65386101D01*
X149682986Y-65599102D01*
X149752784Y-65802964D01*
X149755515Y-65807870D01*
X149819411Y-65922670D01*
X149835064Y-65991920D01*
X149810792Y-66058639D01*
X149754302Y-66101644D01*
X149730654Y-66108128D01*
X149552138Y-66138802D01*
X149541018Y-66141782D01*
X149343852Y-66214520D01*
X149333474Y-66219470D01*
X149220642Y-66286598D01*
X149211044Y-66296931D01*
X149214530Y-66305319D01*
X149860000Y-66950790D01*
X150791315Y-67882104D01*
X150812314Y-67909920D01*
X150857579Y-67991245D01*
X150861130Y-67995583D01*
X150861131Y-67995585D01*
X150990507Y-68153652D01*
X150990512Y-68153657D01*
X150994060Y-68157992D01*
X151157912Y-68297935D01*
X151162753Y-68300764D01*
X151162756Y-68300766D01*
X151180013Y-68310850D01*
X151254909Y-68354615D01*
X151255472Y-68354944D01*
X151304196Y-68406582D01*
X151317267Y-68476365D01*
X151290536Y-68542137D01*
X151232489Y-68583016D01*
X151191926Y-68589732D01*
X150608857Y-68589842D01*
X150546557Y-68589854D01*
X150526557Y-68589857D01*
X150458432Y-68569868D01*
X150411929Y-68516221D01*
X150401812Y-68445949D01*
X150431293Y-68381362D01*
X150464967Y-68353923D01*
X150500278Y-68334148D01*
X150510143Y-68324069D01*
X150507188Y-68316399D01*
X149872811Y-67682021D01*
X149858868Y-67674408D01*
X149857034Y-67674539D01*
X149850420Y-67678790D01*
X149218361Y-68310850D01*
X149212168Y-68322192D01*
X149222051Y-68334683D01*
X149258958Y-68359344D01*
X149304485Y-68413821D01*
X149313332Y-68484264D01*
X149282691Y-68548308D01*
X149222288Y-68585619D01*
X149188981Y-68590108D01*
X143303378Y-68591211D01*
X139591139Y-68591907D01*
X139523014Y-68571918D01*
X139476511Y-68518271D01*
X139466394Y-68447999D01*
X139495875Y-68383412D01*
X139561702Y-68343388D01*
X139593785Y-68335686D01*
X139593788Y-68335685D01*
X139598599Y-68334530D01*
X139622541Y-68324613D01*
X139827940Y-68239534D01*
X139827944Y-68239532D01*
X139832514Y-68237639D01*
X140048392Y-68105349D01*
X140052152Y-68102138D01*
X140052157Y-68102134D01*
X140237155Y-67944130D01*
X140240917Y-67940917D01*
X140291148Y-67882104D01*
X140402134Y-67752157D01*
X140402138Y-67752152D01*
X140405349Y-67748392D01*
X140537639Y-67532514D01*
X140548986Y-67505122D01*
X140632636Y-67303172D01*
X140632637Y-67303170D01*
X140634530Y-67298599D01*
X140638022Y-67284053D01*
X148649293Y-67284053D01*
X148663038Y-67493752D01*
X148664839Y-67505122D01*
X148716568Y-67708807D01*
X148720409Y-67719654D01*
X148808392Y-67910504D01*
X148814142Y-67920465D01*
X148835234Y-67950309D01*
X148845821Y-67958696D01*
X148859121Y-67951668D01*
X149487979Y-67322811D01*
X149495592Y-67308868D01*
X149495461Y-67307034D01*
X149491210Y-67300420D01*
X148855732Y-66664942D01*
X148843352Y-66658182D01*
X148837386Y-66662648D01*
X148743413Y-66841261D01*
X148739005Y-66851904D01*
X148676686Y-67052600D01*
X148674296Y-67063844D01*
X148649594Y-67272552D01*
X148649293Y-67284053D01*
X140638022Y-67284053D01*
X140684621Y-67089954D01*
X140692480Y-67057220D01*
X140692481Y-67057214D01*
X140693635Y-67052407D01*
X140713500Y-66800000D01*
X140693635Y-66547593D01*
X140686544Y-66518054D01*
X140635685Y-66306213D01*
X140634530Y-66301401D01*
X140628430Y-66286675D01*
X140539534Y-66072060D01*
X140539532Y-66072056D01*
X140537639Y-66067486D01*
X140405349Y-65851608D01*
X140402138Y-65847848D01*
X140402134Y-65847843D01*
X140244130Y-65662845D01*
X140240917Y-65659083D01*
X140222295Y-65643178D01*
X140052157Y-65497866D01*
X140052152Y-65497862D01*
X140048392Y-65494651D01*
X139832514Y-65362361D01*
X139827944Y-65360468D01*
X139827940Y-65360466D01*
X139603172Y-65267364D01*
X139603170Y-65267363D01*
X139598599Y-65265470D01*
X139513894Y-65245134D01*
X139357220Y-65207520D01*
X139357214Y-65207519D01*
X139352407Y-65206365D01*
X139100000Y-65186500D01*
X138847593Y-65206365D01*
X138842786Y-65207519D01*
X138842780Y-65207520D01*
X138686106Y-65245134D01*
X138601401Y-65265470D01*
X138596830Y-65267363D01*
X138596828Y-65267364D01*
X138372060Y-65360466D01*
X138372056Y-65360468D01*
X138367486Y-65362361D01*
X138151608Y-65494651D01*
X138147848Y-65497862D01*
X138147843Y-65497866D01*
X137977705Y-65643178D01*
X137959083Y-65659083D01*
X137955870Y-65662845D01*
X137797866Y-65847843D01*
X137797862Y-65847848D01*
X137794651Y-65851608D01*
X137662361Y-66067486D01*
X137660468Y-66072056D01*
X137660466Y-66072060D01*
X137571570Y-66286675D01*
X137565470Y-66301401D01*
X137564315Y-66306213D01*
X137513457Y-66518054D01*
X137506365Y-66547593D01*
X137494956Y-66692555D01*
X137491645Y-66734630D01*
X137466360Y-66800971D01*
X137409222Y-66843111D01*
X137338371Y-66847670D01*
X137276304Y-66813201D01*
X137243668Y-66754790D01*
X135022567Y-57709193D01*
X146705636Y-57709193D01*
X146711708Y-57717305D01*
X146843034Y-57800486D01*
X146852480Y-57805403D01*
X147063128Y-57893304D01*
X147073256Y-57896555D01*
X147295701Y-57947706D01*
X147306240Y-57949206D01*
X147534119Y-57962146D01*
X147544762Y-57961849D01*
X147771563Y-57936209D01*
X147781998Y-57934125D01*
X148001256Y-57870631D01*
X148011173Y-57866824D01*
X148216598Y-57767296D01*
X148225736Y-57761870D01*
X148285022Y-57719505D01*
X148293425Y-57708782D01*
X148286446Y-57695657D01*
X147512811Y-56922021D01*
X147498868Y-56914408D01*
X147497034Y-56914539D01*
X147490420Y-56918790D01*
X146712393Y-57696818D01*
X146705636Y-57709193D01*
X135022567Y-57709193D01*
X134762635Y-56650603D01*
X146091028Y-56650603D01*
X146091826Y-56661216D01*
X146128124Y-56886574D01*
X146130695Y-56896883D01*
X146204445Y-57112903D01*
X146208719Y-57122639D01*
X146317809Y-57323140D01*
X146323664Y-57332020D01*
X146327923Y-57337422D01*
X146339849Y-57345893D01*
X146351382Y-57339407D01*
X147127979Y-56562811D01*
X147135592Y-56548868D01*
X147135461Y-56547034D01*
X147131210Y-56540420D01*
X146350547Y-55759758D01*
X146337366Y-55752560D01*
X146331462Y-55756779D01*
X146219951Y-55952674D01*
X146215488Y-55962334D01*
X146137608Y-56176891D01*
X146134837Y-56187159D01*
X146094221Y-56411771D01*
X146093220Y-56422364D01*
X146091028Y-56650603D01*
X134762635Y-56650603D01*
X133953264Y-53354382D01*
X143045974Y-53354382D01*
X143081658Y-53496850D01*
X143155894Y-53623576D01*
X143262715Y-53724371D01*
X143267345Y-53726734D01*
X143278522Y-53736102D01*
X143957473Y-54409210D01*
X144729386Y-55174480D01*
X144736627Y-55182293D01*
X144741963Y-55188562D01*
X144746753Y-55196154D01*
X144785217Y-55230124D01*
X144790504Y-55235072D01*
X144804561Y-55249008D01*
X144813097Y-55255348D01*
X144821370Y-55262053D01*
X144855773Y-55292437D01*
X144864071Y-55296333D01*
X144885654Y-55309238D01*
X144893014Y-55314704D01*
X144936074Y-55330634D01*
X144945878Y-55334741D01*
X144987435Y-55354252D01*
X144996304Y-55355633D01*
X144996307Y-55355634D01*
X144996493Y-55355663D01*
X145020829Y-55361990D01*
X145029429Y-55365172D01*
X145038381Y-55365798D01*
X145038384Y-55365799D01*
X145075215Y-55368376D01*
X145085802Y-55369569D01*
X145094466Y-55370918D01*
X145094475Y-55370919D01*
X145099287Y-55371668D01*
X145117855Y-55371668D01*
X145126650Y-55371975D01*
X145165572Y-55374699D01*
X145165575Y-55374699D01*
X145174525Y-55375325D01*
X145183293Y-55373414D01*
X145192249Y-55372764D01*
X145192268Y-55373026D01*
X145204876Y-55371668D01*
X146628688Y-55371668D01*
X146696809Y-55391670D01*
X146717784Y-55408573D01*
X147500000Y-56190790D01*
X148373794Y-57064583D01*
X148401163Y-57108510D01*
X148401840Y-57108213D01*
X148403896Y-57112895D01*
X148403939Y-57112965D01*
X148403984Y-57113097D01*
X148403988Y-57113106D01*
X148405711Y-57118153D01*
X148519943Y-57328105D01*
X148667916Y-57515807D01*
X148845399Y-57675895D01*
X148849912Y-57678754D01*
X148849914Y-57678755D01*
X148914250Y-57719505D01*
X149047318Y-57803790D01*
X149052248Y-57805847D01*
X149261835Y-57893304D01*
X149267900Y-57895835D01*
X149396246Y-57925348D01*
X149495629Y-57948201D01*
X149495633Y-57948202D01*
X149500836Y-57949398D01*
X149506169Y-57949701D01*
X149506170Y-57949701D01*
X149620151Y-57956173D01*
X149739467Y-57962949D01*
X149744774Y-57962349D01*
X149744776Y-57962349D01*
X149874300Y-57947706D01*
X149976970Y-57936099D01*
X149982085Y-57934618D01*
X149982089Y-57934617D01*
X150201430Y-57871100D01*
X150201435Y-57871098D01*
X150206553Y-57869616D01*
X150421652Y-57765401D01*
X150546903Y-57675895D01*
X150611771Y-57629540D01*
X150611773Y-57629538D01*
X150616117Y-57626434D01*
X150708258Y-57533486D01*
X150770421Y-57499189D01*
X150841258Y-57503945D01*
X150882129Y-57528627D01*
X151045399Y-57675895D01*
X151049912Y-57678754D01*
X151049914Y-57678755D01*
X151114250Y-57719505D01*
X151247318Y-57803790D01*
X151252248Y-57805847D01*
X151461835Y-57893304D01*
X151467900Y-57895835D01*
X151596246Y-57925348D01*
X151695629Y-57948201D01*
X151695633Y-57948202D01*
X151700836Y-57949398D01*
X151706169Y-57949701D01*
X151706170Y-57949701D01*
X151820151Y-57956173D01*
X151939467Y-57962949D01*
X151944774Y-57962349D01*
X151944776Y-57962349D01*
X152074300Y-57947706D01*
X152176970Y-57936099D01*
X152182085Y-57934618D01*
X152182089Y-57934617D01*
X152401430Y-57871100D01*
X152401435Y-57871098D01*
X152406553Y-57869616D01*
X152621652Y-57765401D01*
X152746903Y-57675895D01*
X152811771Y-57629540D01*
X152811773Y-57629538D01*
X152816117Y-57626434D01*
X152908258Y-57533486D01*
X152970421Y-57499189D01*
X153041258Y-57503945D01*
X153082129Y-57528627D01*
X153245399Y-57675895D01*
X153249912Y-57678754D01*
X153249914Y-57678755D01*
X153314250Y-57719505D01*
X153447318Y-57803790D01*
X153452248Y-57805847D01*
X153661835Y-57893304D01*
X153667900Y-57895835D01*
X153796246Y-57925348D01*
X153895629Y-57948201D01*
X153895633Y-57948202D01*
X153900836Y-57949398D01*
X153906169Y-57949701D01*
X153906170Y-57949701D01*
X154020151Y-57956173D01*
X154139467Y-57962949D01*
X154144774Y-57962349D01*
X154144776Y-57962349D01*
X154274300Y-57947706D01*
X154376970Y-57936099D01*
X154382085Y-57934618D01*
X154382089Y-57934617D01*
X154601430Y-57871100D01*
X154601435Y-57871098D01*
X154606553Y-57869616D01*
X154821652Y-57765401D01*
X154946903Y-57675895D01*
X155011771Y-57629540D01*
X155011773Y-57629538D01*
X155016117Y-57626434D01*
X155108258Y-57533486D01*
X155170421Y-57499189D01*
X155241258Y-57503945D01*
X155282129Y-57528627D01*
X155445399Y-57675895D01*
X155449912Y-57678754D01*
X155449914Y-57678755D01*
X155514250Y-57719505D01*
X155647318Y-57803790D01*
X155652248Y-57805847D01*
X155861835Y-57893304D01*
X155867900Y-57895835D01*
X155996246Y-57925348D01*
X156095629Y-57948201D01*
X156095633Y-57948202D01*
X156100836Y-57949398D01*
X156106169Y-57949701D01*
X156106170Y-57949701D01*
X156220151Y-57956173D01*
X156339467Y-57962949D01*
X156344774Y-57962349D01*
X156344776Y-57962349D01*
X156474300Y-57947706D01*
X156576970Y-57936099D01*
X156582085Y-57934618D01*
X156582089Y-57934617D01*
X156801430Y-57871100D01*
X156801435Y-57871098D01*
X156806553Y-57869616D01*
X157021652Y-57765401D01*
X157146903Y-57675895D01*
X157211771Y-57629540D01*
X157211773Y-57629538D01*
X157216117Y-57626434D01*
X157308258Y-57533486D01*
X157370421Y-57499189D01*
X157441258Y-57503945D01*
X157482129Y-57528627D01*
X157645399Y-57675895D01*
X157649912Y-57678754D01*
X157649914Y-57678755D01*
X157714250Y-57719505D01*
X157847318Y-57803790D01*
X157852248Y-57805847D01*
X158061835Y-57893304D01*
X158067900Y-57895835D01*
X158196246Y-57925348D01*
X158295629Y-57948201D01*
X158295633Y-57948202D01*
X158300836Y-57949398D01*
X158306169Y-57949701D01*
X158306170Y-57949701D01*
X158420151Y-57956173D01*
X158539467Y-57962949D01*
X158544774Y-57962349D01*
X158544776Y-57962349D01*
X158674300Y-57947706D01*
X158776970Y-57936099D01*
X158782085Y-57934618D01*
X158782089Y-57934617D01*
X159001430Y-57871100D01*
X159001435Y-57871098D01*
X159006553Y-57869616D01*
X159221652Y-57765401D01*
X159346903Y-57675895D01*
X159411771Y-57629540D01*
X159411773Y-57629538D01*
X159416117Y-57626434D01*
X159508258Y-57533486D01*
X159570421Y-57499189D01*
X159641258Y-57503945D01*
X159682129Y-57528627D01*
X159845399Y-57675895D01*
X159849912Y-57678754D01*
X159849914Y-57678755D01*
X159914250Y-57719505D01*
X160047318Y-57803790D01*
X160052248Y-57805847D01*
X160261835Y-57893304D01*
X160267900Y-57895835D01*
X160396246Y-57925348D01*
X160495629Y-57948201D01*
X160495633Y-57948202D01*
X160500836Y-57949398D01*
X160506169Y-57949701D01*
X160506170Y-57949701D01*
X160620151Y-57956173D01*
X160739467Y-57962949D01*
X160744774Y-57962349D01*
X160744776Y-57962349D01*
X160874300Y-57947706D01*
X160976970Y-57936099D01*
X160982085Y-57934618D01*
X160982089Y-57934617D01*
X161201430Y-57871100D01*
X161201435Y-57871098D01*
X161206553Y-57869616D01*
X161421652Y-57765401D01*
X161546903Y-57675895D01*
X161611771Y-57629540D01*
X161611773Y-57629538D01*
X161616117Y-57626434D01*
X161784388Y-57456689D01*
X161787448Y-57452327D01*
X161918588Y-57265387D01*
X161918589Y-57265385D01*
X161921652Y-57261019D01*
X162023986Y-57045018D01*
X162088463Y-56814863D01*
X162105023Y-56655982D01*
X162112933Y-56580083D01*
X162112933Y-56580080D01*
X162113240Y-56577136D01*
X162113500Y-56550000D01*
X162093292Y-56311840D01*
X162091951Y-56306672D01*
X162034586Y-56085655D01*
X162034584Y-56085650D01*
X162033245Y-56080490D01*
X161935077Y-55862565D01*
X161801594Y-55664296D01*
X161725606Y-55584640D01*
X161693059Y-55521543D01*
X161699791Y-55450866D01*
X161743664Y-55395049D01*
X161816776Y-55371668D01*
X162992563Y-55371668D01*
X163003685Y-55372911D01*
X163003733Y-55372315D01*
X163012681Y-55373035D01*
X163021436Y-55375016D01*
X163071497Y-55371910D01*
X163079300Y-55371668D01*
X163097491Y-55371668D01*
X163109382Y-55369965D01*
X163119431Y-55368936D01*
X163145983Y-55367288D01*
X163157646Y-55366565D01*
X163157647Y-55366565D01*
X163166607Y-55366009D01*
X163175052Y-55362960D01*
X163178027Y-55362344D01*
X163194774Y-55358169D01*
X163197677Y-55357320D01*
X163206560Y-55356048D01*
X163249605Y-55336476D01*
X163258956Y-55332670D01*
X163294977Y-55319667D01*
X163294980Y-55319665D01*
X163303416Y-55316620D01*
X163310659Y-55311329D01*
X163313314Y-55309917D01*
X163328249Y-55301190D01*
X163330796Y-55299561D01*
X163338967Y-55295846D01*
X163365472Y-55273009D01*
X163374769Y-55264998D01*
X163382686Y-55258711D01*
X163390895Y-55252714D01*
X163390897Y-55252712D01*
X163394823Y-55249844D01*
X163406877Y-55237790D01*
X163413725Y-55231431D01*
X163442358Y-55206760D01*
X163442360Y-55206758D01*
X163449156Y-55200902D01*
X163454037Y-55193372D01*
X163459940Y-55186605D01*
X163460006Y-55186663D01*
X163468494Y-55176173D01*
X164918558Y-53726109D01*
X164927159Y-53718941D01*
X164928553Y-53718247D01*
X165036383Y-53618532D01*
X165111892Y-53492561D01*
X165149010Y-53350460D01*
X165144754Y-53203653D01*
X165140913Y-53191803D01*
X165110906Y-53099237D01*
X165110904Y-53099233D01*
X165109408Y-53094617D01*
X165003351Y-52884758D01*
X164999580Y-52876580D01*
X164993770Y-52862693D01*
X164987621Y-52852679D01*
X164982539Y-52843578D01*
X164980748Y-52840034D01*
X164978727Y-52836035D01*
X164976161Y-52832365D01*
X164976158Y-52832360D01*
X164969988Y-52823535D01*
X164965878Y-52817267D01*
X164755019Y-52473869D01*
X164751287Y-52467365D01*
X164744966Y-52455548D01*
X164744962Y-52455542D01*
X164742667Y-52451251D01*
X164737949Y-52444989D01*
X164731217Y-52435108D01*
X164728833Y-52431225D01*
X164725969Y-52427775D01*
X164725960Y-52427763D01*
X164717236Y-52417256D01*
X164713539Y-52412582D01*
X164468125Y-52086796D01*
X164463801Y-52080687D01*
X164453693Y-52065462D01*
X164450418Y-52061879D01*
X164450410Y-52061869D01*
X164448407Y-52059678D01*
X164440778Y-52050493D01*
X164440725Y-52050422D01*
X164440716Y-52050412D01*
X164438024Y-52046838D01*
X164429117Y-52037975D01*
X164425144Y-52034021D01*
X164421020Y-52029718D01*
X164145844Y-51728678D01*
X164140953Y-51722997D01*
X164135287Y-51716005D01*
X164129451Y-51708803D01*
X164123634Y-51703541D01*
X164115175Y-51695126D01*
X164115120Y-51695066D01*
X164115114Y-51695060D01*
X164112086Y-51691748D01*
X164108627Y-51688904D01*
X164108623Y-51688901D01*
X164098064Y-51680222D01*
X164093550Y-51676329D01*
X163791063Y-51402717D01*
X163785657Y-51397526D01*
X163776272Y-51387963D01*
X163772860Y-51384486D01*
X163766570Y-51379799D01*
X163757349Y-51372222D01*
X163753957Y-51369154D01*
X163738885Y-51358995D01*
X163734037Y-51355557D01*
X163614189Y-51266254D01*
X163406993Y-51111865D01*
X163401116Y-51107207D01*
X163390860Y-51098569D01*
X163390854Y-51098565D01*
X163387133Y-51095431D01*
X163380429Y-51091363D01*
X163370522Y-51084687D01*
X163370461Y-51084642D01*
X163370456Y-51084639D01*
X163366861Y-51081960D01*
X163362932Y-51079823D01*
X163362918Y-51079814D01*
X163350915Y-51073286D01*
X163345758Y-51070322D01*
X162997057Y-50858709D01*
X162990773Y-50854634D01*
X162979745Y-50847008D01*
X162979730Y-50847000D01*
X162975741Y-50844241D01*
X162971365Y-50842124D01*
X162968682Y-50840826D01*
X162958192Y-50835124D01*
X162954284Y-50832752D01*
X162950163Y-50830994D01*
X162950159Y-50830992D01*
X162937571Y-50825622D01*
X162932148Y-50823155D01*
X162574186Y-50650013D01*
X162564999Y-50645569D01*
X162558351Y-50642106D01*
X162546645Y-50635557D01*
X162546638Y-50635554D01*
X162542393Y-50633179D01*
X162537826Y-50631483D01*
X162535050Y-50630452D01*
X162524037Y-50625756D01*
X162523975Y-50625726D01*
X162523971Y-50625724D01*
X162519943Y-50623776D01*
X162502630Y-50618263D01*
X162497036Y-50616335D01*
X162154650Y-50489185D01*
X162114649Y-50474330D01*
X162107713Y-50471517D01*
X162090987Y-50464146D01*
X162083407Y-50462124D01*
X162072035Y-50458505D01*
X162067747Y-50456913D01*
X162049982Y-50453065D01*
X162044227Y-50451675D01*
X161695583Y-50358687D01*
X161654528Y-50347737D01*
X161645896Y-50345100D01*
X161631678Y-50340192D01*
X161620112Y-50338112D01*
X161609952Y-50335847D01*
X161606109Y-50334822D01*
X161606100Y-50334820D01*
X161601772Y-50333666D01*
X161597319Y-50333136D01*
X161597313Y-50333135D01*
X161586602Y-50331860D01*
X161579192Y-50330754D01*
X161427912Y-50303553D01*
X161346525Y-50288919D01*
X161342047Y-50288759D01*
X161342045Y-50288759D01*
X161243968Y-50285259D01*
X161243967Y-50285259D01*
X161234996Y-50284939D01*
X161226296Y-50287150D01*
X161226293Y-50287150D01*
X161222481Y-50288119D01*
X161191451Y-50292000D01*
X155772377Y-50292000D01*
X155771607Y-50291998D01*
X155771351Y-50291996D01*
X155730377Y-50291746D01*
X155721749Y-50294212D01*
X155721748Y-50294212D01*
X155701986Y-50299859D01*
X155685229Y-50303436D01*
X155664902Y-50306347D01*
X155664899Y-50306348D01*
X155656017Y-50307620D01*
X155647847Y-50311335D01*
X155647843Y-50311336D01*
X155632694Y-50318224D01*
X155615166Y-50324673D01*
X155599157Y-50329248D01*
X155599150Y-50329251D01*
X155590525Y-50331716D01*
X155565554Y-50347472D01*
X155550480Y-50355605D01*
X155523610Y-50367822D01*
X155504196Y-50384550D01*
X155489189Y-50395654D01*
X155467513Y-50409331D01*
X155449951Y-50429217D01*
X155447976Y-50431453D01*
X155435780Y-50443500D01*
X155420222Y-50456905D01*
X155420219Y-50456909D01*
X155413421Y-50462766D01*
X155408541Y-50470295D01*
X155408540Y-50470296D01*
X155399482Y-50484271D01*
X155388192Y-50499145D01*
X155371230Y-50518351D01*
X155358682Y-50545077D01*
X155350366Y-50560048D01*
X155334309Y-50584821D01*
X155331736Y-50593425D01*
X155331735Y-50593427D01*
X155326965Y-50609377D01*
X155320303Y-50626822D01*
X155316335Y-50635274D01*
X155309415Y-50650013D01*
X155308035Y-50658877D01*
X155308032Y-50658886D01*
X155304872Y-50679180D01*
X155301091Y-50695891D01*
X155295206Y-50715572D01*
X155292634Y-50724174D01*
X155292579Y-50733146D01*
X155292579Y-50733147D01*
X155292433Y-50756998D01*
X155292315Y-50759838D01*
X155291999Y-50761865D01*
X155291999Y-50827620D01*
X155291997Y-50828390D01*
X155291745Y-50869622D01*
X155291983Y-50870454D01*
X155291999Y-50870692D01*
X155292000Y-52883307D01*
X155292000Y-53165020D01*
X155271998Y-53233141D01*
X155255095Y-53254116D01*
X154472021Y-54037189D01*
X154464408Y-54051132D01*
X154464539Y-54052966D01*
X154468790Y-54059580D01*
X155255193Y-54845982D01*
X155289218Y-54908295D01*
X155290932Y-54917978D01*
X155291801Y-54924320D01*
X155291746Y-54933290D01*
X155294212Y-54941917D01*
X155294212Y-54941920D01*
X155299859Y-54961681D01*
X155303436Y-54978438D01*
X155304303Y-54984488D01*
X155307620Y-55007650D01*
X155311335Y-55015820D01*
X155311336Y-55015824D01*
X155318224Y-55030973D01*
X155324673Y-55048501D01*
X155329248Y-55064510D01*
X155329251Y-55064517D01*
X155331716Y-55073142D01*
X155347472Y-55098113D01*
X155355605Y-55113187D01*
X155367822Y-55140057D01*
X155384550Y-55159471D01*
X155395654Y-55174478D01*
X155409331Y-55196154D01*
X155421344Y-55206763D01*
X155431453Y-55215691D01*
X155443502Y-55227889D01*
X155460422Y-55247527D01*
X155489733Y-55312190D01*
X155479432Y-55382435D01*
X155447549Y-55424933D01*
X155286647Y-55564557D01*
X155286047Y-55565289D01*
X155225366Y-55599531D01*
X155154487Y-55595456D01*
X155105696Y-55563768D01*
X155040298Y-55495213D01*
X155040293Y-55495208D01*
X155036613Y-55491351D01*
X154909933Y-55397099D01*
X154867221Y-55340390D01*
X154861948Y-55269590D01*
X154885976Y-55218287D01*
X154893425Y-55208782D01*
X154886446Y-55195657D01*
X154112811Y-54422021D01*
X154098868Y-54414408D01*
X154097034Y-54414539D01*
X154090420Y-54418790D01*
X153312393Y-55196818D01*
X153305636Y-55209193D01*
X153312681Y-55218604D01*
X153337493Y-55285124D01*
X153322402Y-55354498D01*
X153277176Y-55401835D01*
X153267171Y-55407906D01*
X153086647Y-55564557D01*
X153086047Y-55565289D01*
X153025366Y-55599531D01*
X152954487Y-55595456D01*
X152905696Y-55563768D01*
X152840298Y-55495213D01*
X152840293Y-55495208D01*
X152836613Y-55491351D01*
X152832335Y-55488168D01*
X152757390Y-55432407D01*
X152714677Y-55375696D01*
X152709405Y-55304896D01*
X152738161Y-55247911D01*
X152744837Y-55240352D01*
X152752026Y-55232212D01*
X152764219Y-55220168D01*
X152779777Y-55206763D01*
X152779780Y-55206759D01*
X152786578Y-55200902D01*
X152797370Y-55184253D01*
X152800517Y-55179397D01*
X152811807Y-55164523D01*
X152822826Y-55152046D01*
X152828769Y-55145317D01*
X152841317Y-55118591D01*
X152849633Y-55103620D01*
X152865690Y-55078847D01*
X152868264Y-55070241D01*
X152873034Y-55054291D01*
X152879696Y-55036846D01*
X152886769Y-55021781D01*
X152886769Y-55021779D01*
X152890584Y-55013655D01*
X152891964Y-55004791D01*
X152891967Y-55004782D01*
X152895127Y-54984488D01*
X152898908Y-54967777D01*
X152904793Y-54948096D01*
X152904793Y-54948093D01*
X152907365Y-54939494D01*
X152907420Y-54930520D01*
X152908747Y-54921641D01*
X152911237Y-54922013D01*
X152927818Y-54866811D01*
X152944297Y-54846492D01*
X153727979Y-54062811D01*
X153735592Y-54048868D01*
X153735461Y-54047034D01*
X153731210Y-54040420D01*
X152944905Y-53254116D01*
X152910880Y-53191803D01*
X152908000Y-53165020D01*
X152908000Y-52890426D01*
X153304599Y-52890426D01*
X153308279Y-52899068D01*
X154087189Y-53677979D01*
X154101132Y-53685592D01*
X154102966Y-53685461D01*
X154109580Y-53681210D01*
X154887456Y-52903333D01*
X154894183Y-52891014D01*
X154885653Y-52879654D01*
X154848867Y-52852285D01*
X154839837Y-52846686D01*
X154636361Y-52743233D01*
X154626510Y-52739233D01*
X154408514Y-52671544D01*
X154398133Y-52669261D01*
X154171846Y-52639269D01*
X154161230Y-52638769D01*
X153933130Y-52647332D01*
X153922581Y-52648627D01*
X153699187Y-52695500D01*
X153688990Y-52698560D01*
X153476699Y-52782397D01*
X153467167Y-52787128D01*
X153314106Y-52880008D01*
X153304599Y-52890426D01*
X152908000Y-52890426D01*
X152908000Y-50772378D01*
X152908002Y-50771608D01*
X152908037Y-50765939D01*
X152908254Y-50730378D01*
X152904023Y-50715572D01*
X152900141Y-50701987D01*
X152896564Y-50685230D01*
X152893653Y-50664903D01*
X152893652Y-50664900D01*
X152892380Y-50656018D01*
X152888665Y-50647848D01*
X152888664Y-50647844D01*
X152881776Y-50632695D01*
X152875327Y-50615167D01*
X152870752Y-50599158D01*
X152870749Y-50599151D01*
X152868284Y-50590526D01*
X152852528Y-50565555D01*
X152844395Y-50550481D01*
X152832178Y-50523611D01*
X152815450Y-50504197D01*
X152804346Y-50489190D01*
X152790669Y-50467514D01*
X152768544Y-50447974D01*
X152756500Y-50435781D01*
X152743095Y-50420223D01*
X152743091Y-50420220D01*
X152737234Y-50413422D01*
X152715729Y-50399483D01*
X152700855Y-50388193D01*
X152688378Y-50377174D01*
X152681649Y-50371231D01*
X152654923Y-50358683D01*
X152639952Y-50350367D01*
X152615179Y-50334310D01*
X152606575Y-50331737D01*
X152606573Y-50331736D01*
X152590623Y-50326966D01*
X152573178Y-50320304D01*
X152558113Y-50313231D01*
X152558111Y-50313231D01*
X152549987Y-50309416D01*
X152541123Y-50308036D01*
X152541114Y-50308033D01*
X152520820Y-50304873D01*
X152504109Y-50301092D01*
X152484428Y-50295207D01*
X152484425Y-50295207D01*
X152475826Y-50292635D01*
X152466854Y-50292580D01*
X152466853Y-50292580D01*
X152443002Y-50292434D01*
X152440162Y-50292316D01*
X152438135Y-50292000D01*
X152372378Y-50292000D01*
X152371608Y-50291998D01*
X152371052Y-50291995D01*
X152330378Y-50291746D01*
X152329546Y-50291984D01*
X152329308Y-50292000D01*
X147011580Y-50292000D01*
X146988840Y-50289016D01*
X146988839Y-50289025D01*
X146979922Y-50287961D01*
X146971252Y-50285646D01*
X146962280Y-50285857D01*
X146962279Y-50285857D01*
X146861534Y-50288228D01*
X146861530Y-50288228D01*
X146856661Y-50288343D01*
X146851867Y-50289205D01*
X146851861Y-50289206D01*
X146624713Y-50330068D01*
X146615793Y-50331346D01*
X146615101Y-50331420D01*
X146600789Y-50332949D01*
X146596093Y-50334203D01*
X146596091Y-50334203D01*
X146589491Y-50335965D01*
X146579302Y-50338237D01*
X146575428Y-50338934D01*
X146575417Y-50338937D01*
X146571013Y-50339729D01*
X146566761Y-50341139D01*
X146566758Y-50341140D01*
X146556497Y-50344543D01*
X146549327Y-50346687D01*
X146158880Y-50450916D01*
X146151610Y-50452628D01*
X146148749Y-50453213D01*
X146133655Y-50456297D01*
X146129088Y-50457995D01*
X146129086Y-50457996D01*
X146126378Y-50459003D01*
X146114968Y-50462638D01*
X146114964Y-50462639D01*
X146114951Y-50462644D01*
X146110622Y-50463799D01*
X146093869Y-50470943D01*
X146088378Y-50473134D01*
X145704967Y-50615713D01*
X145697893Y-50618107D01*
X145685013Y-50622045D01*
X145685000Y-50622050D01*
X145680356Y-50623470D01*
X145673363Y-50626858D01*
X145662350Y-50631561D01*
X145662343Y-50631564D01*
X145658140Y-50633127D01*
X145654198Y-50635272D01*
X145654193Y-50635274D01*
X145642163Y-50641819D01*
X145636886Y-50644531D01*
X145268733Y-50822906D01*
X145261938Y-50825953D01*
X145244992Y-50832957D01*
X145238346Y-50836998D01*
X145227848Y-50842717D01*
X145227827Y-50842727D01*
X145227816Y-50842732D01*
X145227813Y-50842734D01*
X145223792Y-50844682D01*
X145220085Y-50847182D01*
X145220077Y-50847187D01*
X145208700Y-50854861D01*
X145203707Y-50858061D01*
X144854184Y-51070598D01*
X144847701Y-51074281D01*
X144831502Y-51082860D01*
X144825267Y-51087516D01*
X144815364Y-51094203D01*
X144815359Y-51094207D01*
X144811512Y-51096546D01*
X144797438Y-51108128D01*
X144792799Y-51111766D01*
X144710205Y-51173453D01*
X144465039Y-51356559D01*
X144458923Y-51360850D01*
X144443623Y-51370922D01*
X144440019Y-51374191D01*
X144437882Y-51376129D01*
X144428628Y-51383753D01*
X144425026Y-51386443D01*
X144421855Y-51389603D01*
X144421852Y-51389606D01*
X144412121Y-51399305D01*
X144407822Y-51403392D01*
X144104831Y-51678195D01*
X144099166Y-51683035D01*
X144084873Y-51694532D01*
X144080319Y-51699530D01*
X144079640Y-51700275D01*
X144071165Y-51708730D01*
X144067832Y-51711753D01*
X144064963Y-51715216D01*
X144056219Y-51725769D01*
X144052328Y-51730247D01*
X143776807Y-52032605D01*
X143771616Y-52037973D01*
X143758490Y-52050765D01*
X143755571Y-52054655D01*
X143755567Y-52054659D01*
X143753826Y-52056979D01*
X143746196Y-52066197D01*
X143746186Y-52066208D01*
X143746182Y-52066214D01*
X143743164Y-52069525D01*
X143732916Y-52084610D01*
X143729482Y-52089415D01*
X143555738Y-52320915D01*
X143483944Y-52416575D01*
X143479298Y-52422397D01*
X143467431Y-52436397D01*
X143464895Y-52440547D01*
X143464892Y-52440550D01*
X143463382Y-52443021D01*
X143456658Y-52452929D01*
X143456652Y-52452938D01*
X143453957Y-52456529D01*
X143445198Y-52472502D01*
X143442247Y-52477595D01*
X143282312Y-52739233D01*
X143231283Y-52822712D01*
X143226308Y-52830232D01*
X143217543Y-52842503D01*
X143215356Y-52846854D01*
X143212295Y-52852944D01*
X143207224Y-52862070D01*
X143202829Y-52869259D01*
X143201057Y-52873377D01*
X143196783Y-52883307D01*
X143193625Y-52890083D01*
X143186965Y-52903333D01*
X143087190Y-53101817D01*
X143051709Y-53207625D01*
X143045974Y-53354382D01*
X133953264Y-53354382D01*
X133600303Y-51916921D01*
X133603484Y-51845996D01*
X133644505Y-51788049D01*
X133710342Y-51761479D01*
X133780093Y-51774722D01*
X133830100Y-51821039D01*
X133919651Y-51967173D01*
X133922862Y-51970933D01*
X133922866Y-51970938D01*
X134019938Y-52084594D01*
X134084083Y-52159698D01*
X134087845Y-52162911D01*
X134272843Y-52320915D01*
X134272848Y-52320919D01*
X134276608Y-52324130D01*
X134492486Y-52456420D01*
X134497056Y-52458313D01*
X134497060Y-52458315D01*
X134721828Y-52551417D01*
X134726401Y-52553311D01*
X134811106Y-52573647D01*
X134967780Y-52611261D01*
X134967786Y-52611262D01*
X134972593Y-52612416D01*
X135225000Y-52632281D01*
X135477407Y-52612416D01*
X135482214Y-52611262D01*
X135482220Y-52611261D01*
X135638894Y-52573647D01*
X135723599Y-52553311D01*
X135728172Y-52551417D01*
X135952940Y-52458315D01*
X135952944Y-52458313D01*
X135957514Y-52456420D01*
X136173392Y-52324130D01*
X136177152Y-52320919D01*
X136177157Y-52320915D01*
X136362155Y-52162911D01*
X136365917Y-52159698D01*
X136430062Y-52084594D01*
X136527134Y-51970938D01*
X136527138Y-51970933D01*
X136530349Y-51967173D01*
X136662639Y-51751295D01*
X136667058Y-51740628D01*
X136757636Y-51521953D01*
X136757637Y-51521951D01*
X136759530Y-51517380D01*
X136792133Y-51381579D01*
X136817480Y-51276001D01*
X136817481Y-51275995D01*
X136818635Y-51271188D01*
X136838500Y-51018781D01*
X136818635Y-50766374D01*
X136816904Y-50759160D01*
X136760685Y-50524994D01*
X136759530Y-50520182D01*
X136755985Y-50511622D01*
X136696420Y-50367822D01*
X136662639Y-50286267D01*
X136530349Y-50070389D01*
X136527138Y-50066629D01*
X136527134Y-50066624D01*
X136369130Y-49881626D01*
X136365917Y-49877864D01*
X136347295Y-49861959D01*
X136177157Y-49716647D01*
X136177152Y-49716643D01*
X136173392Y-49713432D01*
X135957514Y-49581142D01*
X135952944Y-49579249D01*
X135952940Y-49579247D01*
X135740970Y-49491446D01*
X135685689Y-49446897D01*
X135663268Y-49379534D01*
X135680826Y-49310743D01*
X135732788Y-49262364D01*
X135789110Y-49249037D01*
X172482967Y-49227076D01*
X172551099Y-49247037D01*
G37*
G04 #@! TD.AperFunction*
M02*
