G04 #@! TF.GenerationSoftware,KiCad,Pcbnew,(5.99.0-9812-gfee3c41c40)*
G04 #@! TF.CreationDate,2021-03-23T13:38:30-07:00*
G04 #@! TF.ProjectId,homebreakout,686f6d65-6272-4656-916b-6f75742e6b69,rev?*
G04 #@! TF.SameCoordinates,Original*
G04 #@! TF.FileFunction,Copper,L1,Top*
G04 #@! TF.FilePolarity,Positive*
%FSLAX46Y46*%
G04 Gerber Fmt 4.6, Leading zero omitted, Abs format (unit mm)*
G04 Created by KiCad (PCBNEW (5.99.0-9812-gfee3c41c40)) date 2021-03-23 13:38:30*
%MOMM*%
%LPD*%
G01*
G04 APERTURE LIST*
G04 #@! TA.AperFunction,SMDPad,CuDef*
%ADD10C,0.500000*%
G04 #@! TD*
G04 #@! TA.AperFunction,ComponentPad*
%ADD11C,1.397000*%
G04 #@! TD*
G04 #@! TA.AperFunction,ComponentPad*
%ADD12C,1.800000*%
G04 #@! TD*
G04 #@! TA.AperFunction,Conductor*
%ADD13C,0.200000*%
G04 #@! TD*
G04 #@! TA.AperFunction,Conductor*
%ADD14C,0.254000*%
G04 #@! TD*
G04 APERTURE END LIST*
D10*
X169164000Y-50292000D03*
X138684000Y-50292000D03*
X142367000Y-67691000D03*
X165735000Y-67691000D03*
D11*
X149860000Y-67310000D03*
X150860001Y-65309999D03*
X151860001Y-67310000D03*
X152860002Y-65309999D03*
X153860000Y-67310000D03*
X154860000Y-65309999D03*
X155860001Y-67310000D03*
X156860001Y-65309999D03*
D12*
X160700000Y-56550000D03*
X156300000Y-56550000D03*
X158500000Y-56550000D03*
X154100000Y-56550000D03*
X151900000Y-56550000D03*
X149700000Y-56550000D03*
X147500000Y-56550000D03*
X154100000Y-54050000D03*
D13*
X150499698Y-61379366D02*
X150531367Y-61347697D01*
X150072172Y-61442806D02*
X150114444Y-61428014D01*
X149958948Y-61623000D02*
X149963963Y-61578495D01*
X150555194Y-61136223D02*
X150531367Y-61098302D01*
X150158948Y-61423000D02*
X150375000Y-61423000D01*
X150034251Y-61466633D02*
X150072172Y-61442806D01*
X150002582Y-61747697D02*
X149978755Y-61709776D01*
X150499698Y-61866633D02*
X150461777Y-61842806D01*
X150375000Y-61423000D02*
X150419505Y-61417985D01*
X149978755Y-61536223D02*
X150002582Y-61498302D01*
X150499698Y-61066633D02*
X150461777Y-61042806D01*
X150575000Y-57425000D02*
X149700000Y-56550000D01*
X150002582Y-60698302D02*
X150034251Y-60666633D01*
X150499698Y-60579366D02*
X150531367Y-60547697D01*
X149978755Y-60909776D02*
X149963963Y-60867504D01*
X150419505Y-60617985D02*
X150461777Y-60603193D01*
X150569986Y-61978495D02*
X150555194Y-61936223D01*
X150034251Y-61779366D02*
X150002582Y-61747697D01*
X150860001Y-65309999D02*
X151410001Y-64759999D01*
X150034251Y-60666633D02*
X150072172Y-60642806D01*
X150555194Y-61309776D02*
X150569986Y-61267504D01*
X149963963Y-60778495D02*
X149978755Y-60736223D01*
X150575000Y-62023000D02*
X150569986Y-61978495D01*
X150072172Y-61803193D02*
X150034251Y-61779366D01*
X150375000Y-61023000D02*
X150158948Y-61023000D01*
X150375000Y-60623000D02*
X150419505Y-60617985D01*
X150114444Y-61428014D02*
X150158948Y-61423000D01*
X150114444Y-61017985D02*
X150072172Y-61003193D01*
X150531367Y-61898302D02*
X150499698Y-61866633D01*
X150531367Y-61347697D02*
X150555194Y-61309776D01*
X150375000Y-61823000D02*
X150158948Y-61823000D01*
X150461777Y-60603193D02*
X150499698Y-60579366D01*
X149978755Y-61709776D02*
X149963963Y-61667504D01*
X149978755Y-60736223D02*
X150002582Y-60698302D01*
X150575000Y-62552000D02*
X150575000Y-62023000D01*
X150531367Y-61098302D02*
X150499698Y-61066633D01*
X150002582Y-61498302D02*
X150034251Y-61466633D01*
X150158948Y-60623000D02*
X150375000Y-60623000D01*
X151410001Y-64759999D02*
X151410001Y-63387001D01*
X150072172Y-61003193D02*
X150034251Y-60979366D01*
X150575000Y-60423000D02*
X150575000Y-57425000D01*
X150555194Y-61936223D02*
X150531367Y-61898302D01*
X150461777Y-61403193D02*
X150499698Y-61379366D01*
X150531367Y-60547697D02*
X150555194Y-60509776D01*
X150114444Y-60628014D02*
X150158948Y-60623000D01*
X149963963Y-61667504D02*
X149958948Y-61623000D01*
X150158948Y-61823000D02*
X150114444Y-61817985D01*
X149958948Y-60823000D02*
X149963963Y-60778495D01*
X150158948Y-61023000D02*
X150114444Y-61017985D01*
X150419505Y-61028014D02*
X150375000Y-61023000D01*
X150575000Y-61223000D02*
X150569986Y-61178495D01*
X150569986Y-60467504D02*
X150575000Y-60423000D01*
X150034251Y-60979366D02*
X150002582Y-60947697D01*
X150114444Y-61817985D02*
X150072172Y-61803193D01*
X150419505Y-61417985D02*
X150461777Y-61403193D01*
X150419505Y-61828014D02*
X150375000Y-61823000D01*
X150461777Y-61042806D02*
X150419505Y-61028014D01*
X149963963Y-61578495D02*
X149978755Y-61536223D01*
X149963963Y-60867504D02*
X149958948Y-60823000D01*
X150461777Y-61842806D02*
X150419505Y-61828014D01*
X150569986Y-61267504D02*
X150575000Y-61223000D01*
X150555194Y-60509776D02*
X150569986Y-60467504D01*
X150072172Y-60642806D02*
X150114444Y-60628014D01*
X150002582Y-60947697D02*
X149978755Y-60909776D01*
X150569986Y-61178495D02*
X150555194Y-61136223D01*
X151410001Y-63387001D02*
X150575000Y-62552000D01*
X151860001Y-64759999D02*
X151860001Y-67310000D01*
X151025000Y-57425000D02*
X151025000Y-62365600D01*
X151025000Y-62365600D02*
X151860001Y-63200601D01*
X151860001Y-63200601D02*
X151860001Y-64759999D01*
X151900000Y-56550000D02*
X151025000Y-57425000D01*
D14*
X153860000Y-56790000D02*
X153860000Y-67310000D01*
X154100000Y-56550000D02*
X153860000Y-56790000D01*
X156300000Y-61886000D02*
X154860000Y-63326000D01*
X154860000Y-63326000D02*
X154860000Y-65309999D01*
X156300000Y-56550000D02*
X156300000Y-61886000D01*
X157099000Y-67310000D02*
X155860001Y-67310000D01*
X158496000Y-65913000D02*
X157099000Y-67310000D01*
X158496000Y-64897000D02*
X158496000Y-65913000D01*
X158500000Y-56550000D02*
X158496000Y-56554000D01*
X158496000Y-56554000D02*
X158496000Y-64897000D01*
M02*
